<svg xmlns="http://www.w3.org/2000/svg" viewBox="0 0 32 32"><defs><style>.cls-1{fill:#444;}.cls-2{fill:#e7e6e3;}</style></defs><title>Asset 3</title><g id="Layer_2" data-name="Layer 2"><g id="Layer_1-2" data-name="Layer 1"><circle class="cls-1" cx="16" cy="16" r="16"/><path class="cls-2" d="M21.09,23.59s-.66-.78-1.21-1.46A5.74,5.74,0,0,0,23.19,20a9.78,9.78,0,0,1-2.1,1.08,13,13,0,0,1-2.65.79,12.67,12.67,0,0,1-4.73,0A13.1,13.1,0,0,1,11,21a9.21,9.21,0,0,1-1.33-.62l-.17-.09-.07,0c-.33-.19-.51-.32-.51-.32a5.65,5.65,0,0,0,3.19,2.14c-.54.7-1.22,1.5-1.22,1.5a6.63,6.63,0,0,1-5.57-2.76A24.12,24.12,0,0,1,8,10.29a9,9,0,0,1,5.12-1.9l.18.22A12,12,0,0,0,8.48,11s.4-.22,1.08-.51a14.12,14.12,0,0,1,4.15-1.15,1.65,1.65,0,0,1,.31,0,15.59,15.59,0,0,1,3.69,0A15.25,15.25,0,0,1,23.21,11a12,12,0,0,0-4.55-2.3l.25-.29A9,9,0,0,1,24,10.29a24.12,24.12,0,0,1,2.63,10.56,6.67,6.67,0,0,1-5.57,2.74Z"/><path class="cls-1" d="M19.26,15.13a2,2,0,1,0,1.87,2A1.93,1.93,0,0,0,19.26,15.13Zm-6.67,0a2,2,0,0,0,0,4,2,2,0,0,0,0-4Z"/></g></g></svg>