<svg xmlns="http://www.w3.org/2000/svg" width="13.75" height="15" viewBox="0 0 13.75 15"><g transform="translate(-1)"><path d="M2.612,13.247h8.912L11.1,11.869l1.018.874.933.836L14.75,15V1.547A1.659,1.659,0,0,0,13.095,0L2.616,0A1.6,1.6,0,0,0,1,1.55V11.7a1.564,1.564,0,0,0,1.612,1.547ZM9.2,3.552l-.021.007.007-.007Zm-4.769.793a3.856,3.856,0,0,1,2.207-.794l.086.084A4.549,4.549,0,0,0,4.691,4.6s.17-.083.467-.21a7.137,7.137,0,0,1,5.859.251,5.14,5.14,0,0,0-1.953-.961l.116-.114a3.859,3.859,0,0,1,2.174.787,9.648,9.648,0,0,1,1.153,4.387,3.331,3.331,0,0,1-2.457,1.079s-.3-.334-.505-.625a2.524,2.524,0,0,0,1.4-.878,9.2,9.2,0,0,1-.887.461,5.935,5.935,0,0,1-1.142.334,6.08,6.08,0,0,1-3.771-.585l-.327-.166a2.509,2.509,0,0,0,1.359.877c-.257.293-.511.626-.511.626A2.779,2.779,0,0,1,3.29,8.733,9.671,9.671,0,0,1,4.436,4.345Z" fill="#fff"/><path d="M13.824,11.768a.836.836,0,0,0,0-1.672v0a.836.836,0,0,0,0,1.67Z" transform="translate(-4.507 -3.786)" fill="#fff"/><path d="M9.206,11.768a.837.837,0,0,0,0-1.672l0,0a.836.836,0,0,0,0,1.67Z" transform="translate(-2.775 -3.786)" fill="#fff"/></g></svg>