<svg xmlns="http://www.w3.org/2000/svg" xmlns:xlink="http://www.w3.org/1999/xlink" width="171.731" height="175" viewBox="0 0 171.731 175"><defs><clipPath id="a"><path d="M182.917,61.8S145.8,60.182,110.641,82.132s-43.186,54.306-35.3,82.351,63.558,74.408,110.611,68.98,53.186-64.044,40.6-96.229S221.517,63.41,182.917,61.8Z" transform="translate(-72.562 -61.769)" fill="none"/></clipPath><linearGradient id="b" x1="0.482" y1="-0.008" x2="0.504" y2="0.662" gradientUnits="objectBoundingBox"><stop offset="0" stop-color="#2b2451"/><stop offset="0.994" stop-color="#090628"/></linearGradient><linearGradient id="c" x1="0.522" y1="0.972" x2="0.49" y2="-0.174" gradientUnits="objectBoundingBox"><stop offset="0" stop-color="#ff9700"/><stop offset="1" stop-color="#fa0"/></linearGradient><linearGradient id="d" x1="0.676" y1="-0.147" x2="0.302" y2="0.929" gradientUnits="objectBoundingBox"><stop offset="0" stop-color="#f98885"/><stop offset="1" stop-color="#ffaca6"/></linearGradient><linearGradient id="e" x1="1.138" y1="-0.146" x2="0.102" y2="0.983" xlink:href="#d"/><linearGradient id="f" x1="0.573" y1="-0.231" x2="0.443" y2="0.953" gradientUnits="objectBoundingBox"><stop offset="0" stop-color="#f98885"/><stop offset="1" stop-color="#d85656"/></linearGradient><radialGradient id="g" cx="0.597" cy="0.786" r="0.66" gradientTransform="translate(0.072) scale(0.855 1)" gradientUnits="objectBoundingBox"><stop offset="0" stop-color="#8e00ff"/><stop offset="1" stop-color="#380690" stop-opacity="0"/></radialGradient><linearGradient id="h" x1="0.443" y1="0.716" x2="0.99" y2="0.264" gradientUnits="objectBoundingBox"><stop offset="0" stop-color="#ff86cc"/><stop offset="1" stop-color="#fff" stop-opacity="0"/></linearGradient><linearGradient id="i" x1="0" y1="0.5" x2="1" y2="0.5" xlink:href="#h"/><linearGradient id="k" x1="0.135" y1="1.074" x2="0.531" y2="0.527" gradientUnits="objectBoundingBox"><stop offset="0" stop-color="#2ba2ff"/><stop offset="0.994" stop-color="#090628" stop-opacity="0"/></linearGradient><linearGradient id="l" x1="0.988" y1="-0.353" x2="0.233" y2="0.873" gradientUnits="objectBoundingBox"><stop offset="0" stop-color="#270d84"/><stop offset="1" stop-color="#1a0359"/></linearGradient><linearGradient id="m" x1="0.719" y1="-0.333" x2="0.329" y2="1.19" xlink:href="#l"/><linearGradient id="n" x1="1.481" y1="-0.79" x2="0.045" y2="1.082" xlink:href="#d"/><linearGradient id="o" x1="1.697" y1="-1.054" x2="-0.517" y2="1.753" xlink:href="#c"/></defs><g transform="translate(898 926)"><path d="M138.841,47.028S103.6,60.366,79.6,94.886s-18.539,67.89.027,90.878,89,43.942,130.689,20.068,23.966-80.967-.638-105.933S175.467,33.1,138.841,47.028Z" transform="translate(-961.59 -970.256)" fill="#e7e6eb" opacity="0.85"/><g transform="translate(-894.175 -923.131)"><g transform="translate(0 0)" clip-path="url(#a)"><path d="M231.566,181.036c-3.007,25.271-16.453,49.064-45.613,52.426C144,238.3,95.2,201.974,79.522,174.163a44.545,44.545,0,0,1-4.181-9.68c-7.887-28.046.14-60.4,35.3-82.354s72.278-20.335,72.278-20.335a37.38,37.38,0,0,1,13.906,3c18.378,8.262,19.46,32.067,24.715,55.4a117.188,117.188,0,0,0,5.012,17.045C231.338,149.472,233.415,165.533,231.566,181.036Z" transform="translate(-72.561 -61.769)" fill="url(#b)"/><g transform="translate(-5.312 66.226)"><path d="M60.962,217.585,88.2,206.395h21.547L83.719,219.836Z" transform="translate(-60.962 -206.395)" fill="#c2bdff"/><path d="M60.962,230.833l22.757,2.251,5.327,47.847L77.425,282.3Z" transform="translate(-60.962 -219.642)" fill="#8a77e5"/><path d="M110.658,219.836l26.026-13.442,3.789,39.62-25.214,20.051Z" transform="translate(-87.902 -206.395)" fill="#a195f9"/><path d="M79.623,245.9c.722,2.989-.616,5.877-2.987,6.45s-4.88-1.386-5.6-4.375.616-5.877,2.987-6.45S78.9,242.91,79.623,245.9Z" transform="translate(-66.315 -225.384)" fill="#fff" opacity="0.25" style="mix-blend-mode:overlay;isolation:isolate"/><path d="M100.249,248.374H93.81l-.276-2.219h6.44Z" transform="translate(-78.619 -227.948)" fill="#fff" opacity="0.25" style="mix-blend-mode:overlay;isolation:isolate"/><path d="M101.123,259.2h-6.44l-.276-2.219h6.44Z" transform="translate(-79.092 -233.815)" fill="#fff" opacity="0.25" style="mix-blend-mode:overlay;isolation:isolate"/><path d="M90.57,290.289H73.829l-.267-2.219H90.3Z" transform="translate(-67.793 -250.67)" opacity="0.25" style="mix-blend-mode:overlay;isolation:isolate"/><path d="M96.429,301.921H83.457L83.19,299.7H96.162Z" transform="translate(-73.011 -256.975)" opacity="0.25" style="mix-blend-mode:overlay;isolation:isolate"/><path d="M97.828,313.552H84.855l-.267-2.219H97.561Z" transform="translate(-73.77 -263.28)" opacity="0.25" style="mix-blend-mode:overlay;isolation:isolate"/><path d="M99.226,325.183H86.254l-.267-2.219H98.959Z" transform="translate(-74.528 -269.585)" opacity="0.25" style="mix-blend-mode:overlay;isolation:isolate"/></g><g transform="translate(44.964 27.083)"><g transform="translate(0 1.953)"><rect width="33.921" height="50.31" opacity="0.25" style="mix-blend-mode:overlay;isolation:isolate"/><rect width="2.009" height="50.31" transform="translate(33.921)" opacity="0.45" style="mix-blend-mode:overlay;isolation:isolate"/><rect width="25.92" height="38.446" transform="translate(4 5.933)" fill="#fff" opacity="0.25" style="mix-blend-mode:overlay;isolation:isolate"/></g><g transform="translate(48.174)"><rect width="33.921" height="50.31" opacity="0.25" style="mix-blend-mode:overlay;isolation:isolate"/><rect width="2.009" height="50.31" transform="translate(33.921)" opacity="0.45" style="mix-blend-mode:overlay;isolation:isolate"/><rect width="25.92" height="38.446" transform="translate(4 5.933)" fill="#fff" opacity="0.25" style="mix-blend-mode:overlay;isolation:isolate"/></g></g><g transform="translate(73.976 41.119)"><path d="M295.638,229.775a4.668,4.668,0,0,0-1.012.455c-3.858,2.262-5.637,9.76-3.865,16.118a.052.052,0,0,1,.007.027,14.027,14.027,0,0,0,.462,1.4c.02.061.027.088.027.088a.021.021,0,0,0,.007.014.425.425,0,0,0,.034.081c.061.156.19.482.414.978.129.272.272.544.414.809-.007.027-.007.054-.014.088-.462,3,.014,17.585.014,17.585l-11.3,1.27-25.382,2.846s-.231-8.354.129-17.069a19.788,19.788,0,0,0-1.386-7.471,47.362,47.362,0,0,0-6.636-11.655l.021-.02c3.878-4.51,10.623-7.58,12.579-8.409.346-.15.544-.224.544-.224l.285-.081,9.515-2.764s1.888-.1,3.919-.319a13.784,13.784,0,0,1,3.321.217,41.086,41.086,0,0,1,4.951,1.141,91.168,91.168,0,0,1,11.452,4.231c.163.068.326.143.489.211C294.959,229.47,295.3,229.619,295.638,229.775Z" transform="translate(-241.397 -190.554)" fill="url(#c)"/><path d="M333.492,235.749c-1.3.658-4.788,3.029-5.311,9.366-.646,7.831-2.581,28.113-7.105,29.675a1.746,1.746,0,0,0-.89.53l11.3-1.27s-.475-14.59-.014-17.585c.007-.034.007-.061.014-.088-.142-.265-.285-.537-.414-.808-.224-.5-.353-.822-.414-.978a.438.438,0,0,1-.034-.082.021.021,0,0,1-.007-.014s-.006-.027-.027-.088a13.9,13.9,0,0,1-.462-1.4.05.05,0,0,0-.007-.027c-.088-.313-.163-.625-.224-.944a.115.115,0,0,1-.007-.048c-1.161-5.923,1.569-13.048,5.013-15.534a.344.344,0,0,1,.075-.048Z" transform="translate(-280.771 -197.2)" opacity="0.25" style="mix-blend-mode:overlay;isolation:isolate"/><path d="M246.9,261c-1.793,2.622-3.593,5.155-3.593,5.155l-9.2-5.624,6.14-11.2a.12.12,0,0,0,.034-.007l-.021.02A47.362,47.362,0,0,1,246.9,261Z" transform="translate(-234.112 -204.557)" fill="#0d003d"/><path d="M297.571,224.849c-2.71,4.17-6.391,13.6-11.092,13.6-5.644,0-6.337-4.659-8.456-8.035a14.179,14.179,0,0,0-2.989-3.539c.347-.149.544-.224.544-.224l.285-.081,9.516-2.764s1.888-.1,3.919-.32a13.785,13.785,0,0,1,3.321.217A41.071,41.071,0,0,1,297.571,224.849Z" transform="translate(-256.296 -190.538)" opacity="0.25" style="mix-blend-mode:overlay;isolation:isolate"/><path d="M293.6,223.707c-1.06,2.615-2.214,13.034-7.152,13.075-5.175.048-6.819-8.864-9.6-10.208l9.516-2.764s1.888-.1,3.919-.32A13.784,13.784,0,0,1,293.6,223.707Z" transform="translate(-257.277 -190.538)" fill="#0d003d"/><path d="M264.546,201.755c-.435.231-1.189.536-1.6.122a6.983,6.983,0,0,1-.727-1.522c-.638-1.63-1.494-4.177-1.99-5.78a12.713,12.713,0,0,1-.394-1.453.448.448,0,0,1,.2-.374,5.49,5.49,0,0,0,1.182.333A53.293,53.293,0,0,0,264.546,201.755Z" transform="translate(-248.054 -173.89)" fill="#7366d3"/><path d="M261.4,202.518a4.4,4.4,0,0,1-1.372.149,22.55,22.55,0,0,1-1.691-4.551c-.122-.876,1.073-1.379,1.073-1.379C259.907,198.341,260.763,200.888,261.4,202.518Z" transform="translate(-247.24 -176.053)" fill="#ff9700"/><path d="M278.7,160.222c.46,3.487-3.153,13.642-4.553,18.22a12.756,12.756,0,0,0-.537,2.115c-.059-.331-.094-.609-.115-.846-.007-.1-.014-.185-.014-.272-.011-.23-.014-.446-.024-.641,0-.035,0-.07-.007-.1.094-.293.181-.6.272-.923.115-.613.272-1.244.414-1.861V175.9a14.852,14.852,0,0,0,.338-2.059.054.054,0,0,0,.007-.035,5.5,5.5,0,0,0,.021-.588c-.042-2.338.481-8.354.481-8.354s-.108.052-.3.143c-.084.032-.185.08-.3.129-.042.017-.091.038-.136.052a2.1,2.1,0,0,1-.293.129c-.021.014-.049.021-.073.035a1.174,1.174,0,0,1-.728,1.69c-1.638.544-.5,5.612-1.71,4.567-.836-.728-1.157-3.609-1.265-5.013-.08.014-.157.035-.23.045-2.139.4-9.04,2.7-10.734,6.741-.867-1.219.8-3.7.882-3.829-.028.017-.219.136-.533.3l0,0a9.164,9.164,0,0,1-3.668.993h-.021c-.15.007-.307.007-.46,0,.355,1.644,1.164,5.368,1.251,5.971v.007c.087.658-2.439-3.968-3.178-6.351-.042-.021-.091-.028-.129-.049a6.041,6.041,0,0,1-1.505-.857,8.86,8.86,0,0,1-2.4-3.007,16.452,16.452,0,0,1-1.895-8.591,8.418,8.418,0,0,0,4.734.9,7.612,7.612,0,0,0,2.85-.9c-1.616-.408-1.216-2.345-1.216-2.345s.85,1.014,3.39.244,10.814-7.187,16.3-.53a6.934,6.934,0,0,0-2.376-3.748,2.522,2.522,0,0,1,2.54,1.129,5.851,5.851,0,0,1,.484,3.111s1.655-2.867,5.128-.084c-2.989-.163-4.076.565-4.076.565S278.141,155.951,278.7,160.222Z" transform="translate(-241.382 -151.565)" fill="#0d003d"/><path d="M283.849,188.955a5.789,5.789,0,0,1-.02.591.05.05,0,0,1-.007.034c-.1.659-.217,1.345-.34,2.058v.013c-.142.618-.3,1.25-.414,1.861-.088.32-.176.632-.272.924-.17.53-.36,1.019-.557,1.474a12.943,12.943,0,0,1-1.827,3.063c-.027.034-.061.068-.088.1a6.828,6.828,0,0,1-3.573,2.533,6.478,6.478,0,0,1-3.749-.727,16.865,16.865,0,0,1-2.853-1.759,11.967,11.967,0,0,1-2.934-3.953c-.435-.836-.843-1.725-1.209-2.608v-.007c-.006-.034-.013-.082-.02-.142a.025.025,0,0,0-.007-.021c-.156-.883-.829-3.98-1.175-5.59-.021-.075-.034-.15-.048-.218a9.022,9.022,0,0,0,4.687-1.3,8.629,8.629,0,0,0-.7,1.27,2.777,2.777,0,0,0-.184,2.561,7.19,7.19,0,0,1,2-2.615,21.452,21.452,0,0,1,8.728-4.123c.075-.013.15-.034.231-.047.109,1.406.428,4.286,1.263,5.012,1.209,1.046.075-4.021,1.711-4.564a1.176,1.176,0,0,0,.727-1.692.731.731,0,0,0,.075-.034,2.316,2.316,0,0,0,.292-.129.8.8,0,0,0,.136-.054c.115-.048.218-.1.3-.129.2-.088.305-.143.305-.143S283.808,186.618,283.849,188.955Z" transform="translate(-250.724 -167.305)" fill="url(#d)"/><path d="M292.741,221.655a19.789,19.789,0,0,1-1.433,4.721c-.489.971-1.06,1.63-1.712,1.6-2.241-.122-4.9-4.6-5.447-6.052-.238-.625-.564-1.718-.863-2.764-.2-.706-.387-1.392-.523-1.895a8.192,8.192,0,0,0,1.97.666,5.614,5.614,0,0,0,1.779.061c.937-.1,4.3-1.813,6.045-7.172.014.224.02.468.034.74,0,.088.007.176.014.272.115,2.608.312,6.676.428,7.247A11.131,11.131,0,0,1,292.741,221.655Z" transform="translate(-260.485 -183.684)" fill="url(#e)"/><g transform="translate(14.032 13.295)" opacity="0.25" style="mix-blend-mode:overlay;isolation:isolate"><path d="M264.756,192.132a9.022,9.022,0,0,0,4.687-1.3,8.628,8.628,0,0,0-.7,1.27c-1.522.068-2.921.163-3.939.245C264.783,192.275,264.77,192.2,264.756,192.132Z" transform="translate(-264.756 -186.148)"/><path d="M290.723,188.955a5.789,5.789,0,0,1-.02.591.05.05,0,0,1-.007.034c-.1.659-.217,1.345-.34,2.058v.013c-.142.618-.3,1.25-.414,1.861-.088.32-.176.632-.272.924-.17.53-.36,1.019-.557,1.474.007-4.021-1.25-7.016-3.376-8.47-1.257-.856-4.857-1.012-8.3-.937a21.452,21.452,0,0,1,8.728-4.123c.075-.013.15-.034.231-.047.109,1.406.428,4.286,1.263,5.012,1.209,1.046.075-4.021,1.711-4.564a1.175,1.175,0,0,0,.727-1.692.726.726,0,0,0,.075-.034,2.315,2.315,0,0,0,.292-.129.8.8,0,0,0,.136-.054c.115-.048.218-.1.3-.129.2-.088.305-.143.305-.143S290.683,186.618,290.723,188.955Z" transform="translate(-271.631 -180.6)"/></g><path d="M281.779,213.058a6.827,6.827,0,0,1-3.573,2.533,6.478,6.478,0,0,1-3.749-.727,16.866,16.866,0,0,1-2.853-1.759,11.968,11.968,0,0,1-2.934-3.953c-.435-.836-.843-1.725-1.209-2.608v-.007c-.006-.034-.013-.082-.02-.142a14.851,14.851,0,0,0,4.578,5.746C276.393,215.13,279.341,215.9,281.779,213.058Z" transform="translate(-252.179 -181.288)" fill="#fff" opacity="0.25" style="mix-blend-mode:overlay;isolation:isolate"/><path d="M295.073,221.655a79.1,79.1,0,0,0-8.008-3.729,5.614,5.614,0,0,0,1.779.061c.937-.1,4.3-1.813,6.045-7.172.014.224.02.468.034.74,0,.088.007.176.014.272.115,2.608.312,6.676.428,7.247A11.131,11.131,0,0,1,295.073,221.655Z" transform="translate(-262.817 -183.684)" opacity="0.25" style="mix-blend-mode:overlay;isolation:isolate"/><path d="M291.927,236.249c-.489.971-1.06,1.63-1.712,1.6-2.241-.122-4.9-4.6-5.447-6.052-.238-.625-.564-1.718-.863-2.764C285.012,231.678,288.367,238.729,291.927,236.249Z" transform="translate(-261.104 -193.557)" fill="#fff" opacity="0.25" style="mix-blend-mode:overlay;isolation:isolate"/><path d="M292.549,163.884c.46,3.487-3.153,13.642-4.553,18.22-.265.136-.5.255-.69.355,0-.035,0-.07-.007-.1.094-.293.181-.6.272-.923.115-.613.272-1.244.414-1.861v-.014a14.834,14.834,0,0,0,.338-2.059.054.054,0,0,0,.007-.035,5.5,5.5,0,0,0,.021-.588c-.042-2.338.481-8.354.481-8.354s-.108.052-.3.143c-.084.032-.185.08-.3.129-.042.017-.091.038-.136.052a2.1,2.1,0,0,1-.293.129c-.021.014-.049.021-.073.035A1.174,1.174,0,0,1,287,170.7c-1.637.544-.5,5.612-1.71,4.567-.836-.728-1.157-3.609-1.265-5.013-.08.014-.157.035-.23.045-2.139.4-9.04,2.7-10.734,6.741a9.91,9.91,0,0,1,5.546-7.051,5.948,5.948,0,0,0,3.581-6.943l2.167,1.344s-.15-4.929-4.108-6.048c5.076-.373,8.434,3.658,8.434,3.658s-1.8-4.815,4.553-2.6c-2.989-.163-4.076.565-4.076.565S291.985,159.612,292.549,163.884Z" transform="translate(-255.226 -155.227)" opacity="0.25" style="mix-blend-mode:overlay;isolation:isolate"/><g transform="translate(17.344 1.261)"><path d="M286.8,166.13s-2.916-12.664-14.815-9.386c1.094-1.927,4.2-3.017,8.155-2.089s7.98,6.213,8.731,10.914Z" transform="translate(-271.988 -154.32)" fill="#fa0"/><path d="M309.265,190.561a1.156,1.156,0,0,1-.89-.3c-.951-.747-1.848-2.792-2.221-5.277s-.095-4.714.6-5.7a1.141,1.141,0,0,1,.761-.537c1.236-.183,2.628,2.316,3.111,5.576S310.5,190.378,309.265,190.561Z" transform="translate(-290.42 -167.558)" fill="#7366d3"/><path d="M307.317,190.572l-1.651.245c-1.236.184-2.628-2.316-3.1-5.576s.129-6.059,1.365-6.242l1.644-.238a1.141,1.141,0,0,0-.761.537c-.7.985-.971,3.206-.6,5.7s1.27,4.53,2.221,5.277A1.156,1.156,0,0,0,307.317,190.572Z" transform="translate(-288.473 -167.569)" fill="#8a77e5"/><path d="M313.229,190.488l-1.393.21c-.822.116-1.739-1.535-2.058-3.688s.088-4.007.9-4.129l1.4-.2a.933.933,0,0,0-.632.571,5.19,5.19,0,0,0-.381,2.275,9.408,9.408,0,0,0,.109,1.277,9.581,9.581,0,0,0,.272,1.277,5.048,5.048,0,0,0,1.019,2.051A.888.888,0,0,0,313.229,190.488Z" transform="translate(-292.415 -169.692)" fill="#ff9700"/><path d="M314.884,190.481a.888.888,0,0,1-.761-.36,5.046,5.046,0,0,1-1.019-2.051,9.577,9.577,0,0,1-.272-1.277,9.394,9.394,0,0,1-.109-1.277,5.188,5.188,0,0,1,.38-2.275.933.933,0,0,1,.632-.571c.815-.122,1.739,1.528,2.051,3.688S315.706,190.365,314.884,190.481Z" transform="translate(-294.07 -169.684)" fill="#fa0"/></g><path d="M260.544,176.235a2.873,2.873,0,0,1-.979,1.191l0,0a5.74,5.74,0,0,1-3.668.993h-.021a8.474,8.474,0,0,1-4.021-1.279,8.86,8.86,0,0,1-2.4-3.007,16.452,16.452,0,0,1-1.895-8.591,8.418,8.418,0,0,0,4.734.9,4.732,4.732,0,0,1-1.826.557,2.779,2.779,0,0,1-2.167-.561s1.23,7.609,4.173,9.793S260.544,176.235,260.544,176.235Z" transform="translate(-241.382 -159.145)" fill="#fff" opacity="0.25" style="mix-blend-mode:overlay;isolation:isolate"/></g><g transform="translate(17.445 109.132)"><path d="M245.51,339.759s-1.848,10.589-16.668,19.045c-.381.224-.781.441-1.182.659a74.065,74.065,0,0,1-19.915,6.962,47.757,47.757,0,0,1-5.767.849q-.519.051-1.039.082c-13,.91-27.909-2.67-41.867-8.681-.2-.082-.408-.17-.6-.258-15.866-6.914-30.442-16.926-39.537-26.992-.163-.17-.319-.346-.468-.516a41.762,41.762,0,0,1-7.8-12.015l3.172-2.181,1.263-.869,16.192-11.126h.007l.707-.489,6.018-4.137,18.128,1.284,1.6.109,28.846,2.045,3.763.265h.007l12.41.876.658.047,22.142,1.569.217.013.713.055,7.682.537v.007l.727.048,1.725.122,4.028.285,1.4,9.373.1.693.693,4.6.122.842Z" transform="translate(-110.658 -300.093)" fill="url(#f)"/><g transform="translate(3.172 1.284)" opacity="0.45"><path d="M172.482,355.228c-.326,3.45-1.658,7.1-4.639,9.115-5.916,3.987-17.083,2.391-19.364-5.141-.476-1.562-.584-3.512.53-4.829A7.6,7.6,0,0,1,153.1,352.4c3.084-.713,6.527-.36,8.714,2.126.292.326-.19.808-.475.482-2.452-2.785-6.616-2.676-9.835-1.413-5.637,2.221-1.3,8.945,2.337,10.759a15.455,15.455,0,0,0,10.718.727c3.858-1.087,6.1-4.1,6.942-7.906.788-3.586.523-7.709-2.785-9.944-3.1-2.1-7.376-2.744-11.03-3.07a80.993,80.993,0,0,0-10.663-.048c-3.933.177-7.872.306-11.268,2.54a27.757,27.757,0,0,0-7.2,7.587c-.129.19-.258.381-.381.571-.163-.17-.319-.346-.468-.516q.774-1.172,1.65-2.282c3-3.831,6.555-7.2,11.5-8.069a69.305,69.305,0,0,1,14.338-.611c4.327.163,9.108.706,12.98,2.785C171.667,347.988,172.842,351.4,172.482,355.228Z" transform="translate(-123.069 -324.758)" opacity="0.25" style="mix-blend-mode:overlay;isolation:isolate"/><path d="M223.134,327.263a16.758,16.758,0,0,0-9.051-7.667c-4.262-1.652-9.516-2.138-13.28.892-.341.274.143.752.48.48,4.31-3.47,10.848-1.995,15.248.546a14.226,14.226,0,0,1,7.314,13.932c-.727,11.342-8.968,21.281-20.38,22.971-.431.064-.248.718.18.655a24.738,24.738,0,0,0,19.84-17.736C224.793,336.87,225.3,331.542,223.134,327.263Z" transform="translate(-162.633 -311.238)" opacity="0.25" style="mix-blend-mode:overlay;isolation:isolate"/><path d="M323.368,377.973c-.381.224-.781.441-1.182.659-1.569,0-3.131-.081-4.673-.217a71,71,0,0,1-11.452-1.847c-2.867-.734-5.869-1.637-8.15-3.607-4.687-4.034-4.626-10.908-5.353-16.538-.937-7.234-2.791-14.583-7.444-20.37-.272-.34.2-.822.482-.482a35.67,35.67,0,0,1,6.711,15.221c1.161,5.536.9,11.554,2.866,16.879,2.187,5.909,7.913,7.634,13.564,8.816A62.025,62.025,0,0,0,323.368,377.973Z" transform="translate(-208.356 -320.546)" opacity="0.25" style="mix-blend-mode:overlay;isolation:isolate"/><path d="M374.7,346.9a13.621,13.621,0,0,0-1.6-.693,15.99,15.99,0,0,0-8.388-.761c-3.023.638-5.2,2.846-6.874,5.311a19.5,19.5,0,0,0-3.328,7.994c-.265,1.739-.367,3.851,1.358,4.9a7.45,7.45,0,0,0,3.5.835,7.227,7.227,0,0,0,2.534-.2,3.135,3.135,0,0,0,2.065-2.282,12.7,12.7,0,0,0,.991-4.347c-.006-2.228-1.616-4.408-4.062-3.892a3.967,3.967,0,0,0-2.921,3.383c-.075.428-.734.245-.652-.184.469-2.568,2.873-4.68,5.583-3.743,3.1,1.08,2.968,4.829,2.228,7.4-.36,1.236-.754,2.812-1.752,3.709-1.087.985-2.642.9-4.014.835-2.513-.135-5.21-.876-5.644-3.729s.761-6.079,2.045-8.558a17.654,17.654,0,0,1,5.705-6.854c3.634-2.316,8.986-1.909,13.1.034Z" transform="translate(-245.549 -325.416)" opacity="0.25" style="mix-blend-mode:overlay;isolation:isolate"/><path d="M353.537,353.7c-5.128,2.805-11.879,2.852-15.975-1.739-3.953-4.435-5.338-10.929-4.469-16.7a20.956,20.956,0,0,1,3.24-8.5c1.827-2.751,4.225-5.04,6.344-7.553a21.669,21.669,0,0,0,3.559-5.563l.713.055c-.082.218-.169.441-.272.659-2.465,5.467-7.73,8.932-10.6,14.128a21.322,21.322,0,0,0-1.23,17.531c1.128,3.009,3.036,6.079,5.9,7.682,3.036,1.7,6.785,1.562,10,.475a12.8,12.8,0,0,0,7.009-5.291,8.281,8.281,0,0,0-.414-9.38c-.272-.34.21-.822.482-.482C361.959,344.147,358.7,350.871,353.537,353.7Z" transform="translate(-234.274 -308.726)" opacity="0.25" style="mix-blend-mode:overlay;isolation:isolate"/><path d="M362.326,315a7.874,7.874,0,0,1-.665,1.868c-1.005,1.97-2.805,3.328-4.5,4.68-2.16,1.725-4.381,3.389-6.466,5.2-2.282,1.977-4.245,4.354-4.32,7.512a.34.34,0,0,1-.679,0c.115-4.945,4.354-7.9,7.865-10.7a56.5,56.5,0,0,0,6.018-4.985,8.275,8.275,0,0,0,2.017-3.62Z" transform="translate(-241.242 -309.434)" opacity="0.25" style="mix-blend-mode:overlay;isolation:isolate"/><path d="M387.736,336.178c-2.724-.367-5.468-.625-8.219-.8-.435-.027-.435-.707,0-.68q4.075.255,8.117.788Z" transform="translate(-259.398 -320.135)" opacity="0.25" style="mix-blend-mode:overlay;isolation:isolate"/><path d="M290.95,332.981c-1.848-4.891-2.072-10.168-3.627-15.133-1.549-4.924-5.012-9.855-10.616-10.154a.323.323,0,0,1-.217-.095l3.763.265h.007a14.03,14.03,0,0,1,6.881,7.519c2.37,5.556,2.336,11.778,4.462,17.422C291.758,333.212,291.1,333.389,290.95,332.981Z" transform="translate(-203.724 -305.446)" opacity="0.25" style="mix-blend-mode:overlay;isolation:isolate"/><path d="M323.483,313.834a34.724,34.724,0,0,1-1.6,4.143c-.36.754-.707,1.963-1.474,2.411-1.433.836-3.831.014-5.087-.815-3.158-2.085-3.444-5.875-3.5-9.482l.658.047c.021,2.7.2,5.413,1.855,7.567,1.121,1.46,4.462,3.45,6.12,1.589a10.381,10.381,0,0,0,1.325-2.764c.4-.944.74-1.9,1.053-2.88C322.96,313.236,323.619,313.412,323.483,313.834Z" transform="translate(-222.877 -306.797)" opacity="0.25" style="mix-blend-mode:overlay;isolation:isolate"/><path d="M287.091,409.727q-.519.051-1.039.081c-.014-.014-.027-.021-.041-.034-4.245-3.736-6.813-8.877-9.224-13.9-2.785-5.787-5.767-11.458-9.068-16.967a.338.338,0,0,1,.584-.34q4.391,7.336,8.137,15.031c2.316,4.775,4.5,9.74,8.083,13.74A19.61,19.61,0,0,0,287.091,409.727Z" transform="translate(-198.942 -343.829)" opacity="0.25" style="mix-blend-mode:overlay;isolation:isolate"/><path d="M307.484,420.99a32.886,32.886,0,0,1-12.642-14.808c-.173-.4-.758-.054-.587.343a33.5,33.5,0,0,0,12.886,15.052C307.512,421.81,307.853,421.223,307.484,420.99Z" transform="translate(-213.338 -358.79)" opacity="0.25" style="mix-blend-mode:overlay;isolation:isolate"/><path d="M241.338,418.751c-.849,1.29-2.751,1.352-4.13,1.508-3.5.381-8.1-.374-8.565-4.632-.048-.435.631-.428.679,0,.36,3.321,3.919,4.211,6.718,4.055a12.592,12.592,0,0,0,3.532-.5c1.82-.658,1.752-2.649,1.134-4.163-1.875-4.605-8.864-5.828-13.238-5.217-4.958.686-8.212,4.592-11.8,7.926-.2-.081-.408-.17-.6-.258,1.752-1.569,3.389-3.308,5.19-4.815a13.681,13.681,0,0,1,10.636-3.552c3.8.387,8.34,1.44,10.229,5.155C241.773,415.524,242.194,417.46,241.338,418.751Z" transform="translate(-170.428 -360.426)" opacity="0.25" style="mix-blend-mode:overlay;isolation:isolate"/><path d="M251.583,400.892a7,7,0,0,0-6.315-2.569c-.429.051-.434.731,0,.68a6.388,6.388,0,0,1,5.835,2.37C251.378,401.712,251.856,401.229,251.583,400.892Z" transform="translate(-186.625 -354.598)" opacity="0.25" style="mix-blend-mode:overlay;isolation:isolate"/><path d="M157.774,335.624c-1.766-1.379-3.994-1.657-6.147-1.956-2.452-.347-4.918-.6-7.383-.795a116.833,116.833,0,0,0-13.075-.245,115.293,115.293,0,0,0-13.585,1.311l1.263-.869a115.618,115.618,0,0,1,11.669-1.094,117.359,117.359,0,0,1,15.683.38c3.837.353,8.877.306,12.049,2.785C158.6,335.413,158.114,335.888,157.774,335.624Z" transform="translate(-117.585 -318.602)" opacity="0.25" style="mix-blend-mode:overlay;isolation:isolate"/><path d="M182.176,303.006q-3.383,1.315-6.758,2.615a25.291,25.291,0,0,1-9.352,1.895,41.7,41.7,0,0,1-9.136-.931,12.311,12.311,0,0,1-1.209-.347l.707-.489a19.378,19.378,0,0,0,2.948.577,44.535,44.535,0,0,0,8.606.455,29.578,29.578,0,0,0,8.708-2.377c1.3-.5,2.588-1.006,3.885-1.508Z" transform="translate(-138.257 -302.897)" opacity="0.25" style="mix-blend-mode:overlay;isolation:isolate"/><path d="M255.808,330.518c-2.349-8.207-6.892-16.73-15.782-19.04a.34.34,0,0,0-.181.655c8.659,2.25,13.025,10.591,15.308,18.566A.34.34,0,0,0,255.808,330.518Z" transform="translate(-183.73 -307.542)" opacity="0.25" style="mix-blend-mode:overlay;isolation:isolate"/></g></g><g transform="translate(77.485 125.897)"><path d="M327.042,337.128,294.6,336.7l-11.984,18.157,19.758-1.168,20.006-.261Z" transform="translate(-263.915 -336.704)" fill="#34288c"/><path d="M313.494,340.449h22.515l-2.986,11.386-26.086.235Z" transform="translate(-277.098 -338.734)" fill="#fff" opacity="0.25" style="mix-blend-mode:overlay;isolation:isolate"/><path d="M354.792,367.581h3.195l-.424,1.616-3.7.033Z" transform="translate(-302.536 -353.442)" fill="#fff" opacity="0.25" style="mix-blend-mode:overlay;isolation:isolate"/><path d="M355.442,359.824h3.195l-.424,1.616-3.7.033Z" transform="translate(-302.888 -349.237)" fill="#fff" opacity="0.25" style="mix-blend-mode:overlay;isolation:isolate"/><path d="M342.9,359.824h3.195l-.424,1.616-3.7.033Z" transform="translate(-296.087 -349.237)" fill="#fff" opacity="0.25" style="mix-blend-mode:overlay;isolation:isolate"/><path d="M332.765,359.824h3.195l-.424,1.616-3.7.033Z" transform="translate(-290.595 -349.237)" fill="#fff" opacity="0.25" style="mix-blend-mode:overlay;isolation:isolate"/><path d="M341.294,354.73h3.195l-.424,1.616-3.7.033Z" transform="translate(-295.219 -346.475)" fill="#fff" opacity="0.25" style="mix-blend-mode:overlay;isolation:isolate"/><path d="M329.923,354.548h3.195l-.424,1.616-3.7.033Z" transform="translate(-289.055 -346.377)" fill="#fff" opacity="0.25" style="mix-blend-mode:overlay;isolation:isolate"/><path d="M336.81,349.966H340l-.424,1.616-3.7.033Z" transform="translate(-292.788 -343.893)" fill="#fff" opacity="0.25" style="mix-blend-mode:overlay;isolation:isolate"/><path d="M328.114,349.536h3.195l-.424,1.616-3.7.033Z" transform="translate(-288.074 -343.66)" fill="#fff" opacity="0.25" style="mix-blend-mode:overlay;isolation:isolate"/><path d="M342.25,345.289h3.195l-.424,1.616-3.7.033Z" transform="translate(-295.737 -341.358)" fill="#fff" opacity="0.25" style="mix-blend-mode:overlay;isolation:isolate"/><path d="M339.325,341.147h3.195l-.424,1.616-3.7.033Z" transform="translate(-294.151 -339.113)" fill="#fff" opacity="0.25" style="mix-blend-mode:overlay;isolation:isolate"/><path d="M332.055,345.289h3.195l-.424,1.616-3.7.033Z" transform="translate(-290.21 -341.358)" fill="#fff" opacity="0.25" style="mix-blend-mode:overlay;isolation:isolate"/><path d="M347.4,349.536H350.6l-.424,1.616-3.7.033Z" transform="translate(-298.529 -343.66)" fill="#fff" opacity="0.25" style="mix-blend-mode:overlay;isolation:isolate"/><path d="M342.9,367.581h3.195l-.424,1.616-3.7.033Z" transform="translate(-296.087 -353.442)" fill="#fff" opacity="0.25" style="mix-blend-mode:overlay;isolation:isolate"/><path d="M331,367.581H334.2l-.424,1.616-3.7.033Z" transform="translate(-289.639 -353.442)" fill="#fff" opacity="0.25" style="mix-blend-mode:overlay;isolation:isolate"/><path d="M241.775,374l58.466-.764,1.21,5.671H241.775Z" transform="translate(-241.775 -356.506)" fill="#0d003d"/><path d="M369.455,353.933l4.66-16.3.242,2.6L370.665,359.6Z" transform="translate(-310.989 -337.205)" fill="#200e75"/><path d="M315.191,381.335s1.775,8.634-9.326,10.814-21.027,1.533-25.143,15.575" transform="translate(-262.888 -360.898)" fill="none" stroke="#c14aff" stroke-linecap="round" stroke-linejoin="round" stroke-width="1.483"/></g><g transform="translate(-0.001 0)"><path d="M239.807,230.229c-3.007,25.271-16.453,49.064-45.613,52.426-41.951,4.84-90.756-31.489-106.43-59.3a91.448,91.448,0,0,1,142.016-53.972,117.185,117.185,0,0,0,5.012,17.045C239.579,198.665,241.656,214.727,239.807,230.229Z" transform="translate(-80.802 -110.961)" fill="url(#g)" style="mix-blend-mode:lighten;isolation:isolate"/><g transform="translate(26.698 2.991)"><path d="M263.22,184.541c-3.127.523-6.074.947-8.721,1.37-15.695,2.508-17.591,17.835-31.641,19.808a24.573,24.573,0,0,0,.8-6.633c.431-14.157-2.376-43.326-2.376-43.326a4.858,4.858,0,0,0-1.881-.323c-6.657-.3-28.458,2.112-50.166-2.336-15.882-3.254-26.077-8.263-31.936-11.92a61.808,61.808,0,0,1-6.433-4.66,9.308,9.308,0,0,0,3.358,0,35.576,35.576,0,0,0,11.43-4.037c10.247-5.311,20.307-30.554,35.3-32.834S213.6,96.808,218.912,89.4a28.04,28.04,0,0,0,2.28-4.057c2.193-4.589,4.593-11.122,7.284-17.048,22.943,10.315,18.933,44.85,29.728,72.442C262.992,152.977,265.069,169.038,263.22,184.541Z" transform="translate(-130.864 -68.299)" fill="url(#h)" style="mix-blend-mode:soft-light;isolation:isolate"/><path d="M225.168,105.529c-1.933,14.688-29,13.677-41.14,17.866-12.384,4.269-25.195,29.891-32.367,32.172-4.265,1.358-9.732,1.358-13.462,1.138a35.577,35.577,0,0,0,11.43-4.037c10.247-5.311,20.307-30.554,35.3-32.834s32.643-2.843,37.958-10.247A28.04,28.04,0,0,0,225.168,105.529Z" transform="translate(-134.84 -88.481)" fill="url(#i)" style="mix-blend-mode:soft-light;isolation:isolate"/><path d="M383.6,316.847a189.972,189.972,0,0,1-20.2,3.8c-15.695,2.508-17.591,17.835-31.641,19.808a24.572,24.572,0,0,0,.8-6.633,17.7,17.7,0,0,0,7.752-1.841c6.86-3.454,9.065-13.606,22.575-14.508C369.847,317.007,377.147,317.262,383.6,316.847Z" transform="translate(-239.767 -203.033)" fill="url(#i)" style="mix-blend-mode:soft-light;isolation:isolate"/></g><path d="M231.566,181.036c-3.007,25.271-16.453,49.064-45.613,52.426C144,238.3,95.2,201.974,79.522,174.163a44.545,44.545,0,0,1-4.181-9.68c-7.887-28.046.14-60.4,35.3-82.354s72.278-20.335,72.278-20.335a37.38,37.38,0,0,1,13.906,3c18.378,8.262,19.46,32.067,24.715,55.4a117.188,117.188,0,0,0,5.012,17.045C231.338,149.472,233.415,165.533,231.566,181.036Z" transform="translate(-72.561 -61.768)" fill="url(#k)"/></g><g transform="translate(23.618 71.171)"><path d="M209.818,406.039a4.91,4.91,0,0,1-.863.245c-4.354.843-23.691-5.814-24.37-11.988a22.778,22.778,0,0,1,2.662-3.756,16.712,16.712,0,0,1,5.855-4.51c5.311-2.262,20.574,2.459,22.027,7.661C216.487,398.548,213.73,404.565,209.818,406.039Z" transform="translate(-156.906 -308.401)" fill="#8a77e5"/><path d="M209.818,409.362a4.907,4.907,0,0,1-.863.245c-4.354.843-23.691-5.814-24.37-11.988a22.78,22.78,0,0,1,2.662-3.756c3.437-1.637,9.747-3.695,16.261-.924C210.878,396.07,210.443,405.184,209.818,409.362Z" transform="translate(-156.906 -311.724)" opacity="0.25" style="mix-blend-mode:overlay;isolation:isolate"/><path d="M217.586,236.508c-4.2,4.417-51.057,6.3-79.93-8.677a55.212,55.212,0,0,1-10-6.545,41.122,41.122,0,0,1-3.518-3.291s2.3-1.094,3.031-.727a61.806,61.806,0,0,0,6.433,4.66c1.637,1.023,3.61,2.149,5.954,3.314a105.907,105.907,0,0,0,25.982,8.606c21.709,4.449,43.509,2.037,50.166,2.336A4.858,4.858,0,0,1,217.586,236.508Z" transform="translate(-124.139 -217.192)" fill="#8a77e5"/><path d="M219.823,283.5a15.531,15.531,0,0,1-.659,3.917c-1.529,4.021-20.962,10.147-42.954,7.851H176.2c-.643-.068-1.286-.14-1.929-.224-.323-.04-.647-.08-.97-.128q-.341-.042-.683-.1c-.2-.028-.4-.06-.6-.088-.264-.04-.531-.084-.8-.128-.251-.04-.5-.08-.755-.124-.235-.04-.475-.08-.711-.128-.34-.06-.683-.124-1.027-.188-.379-.072-.759-.148-1.138-.232q-1.372-.282-2.736-.615c-.443-.108-.887-.22-1.33-.332l-.04-.012q-.659-.174-1.318-.359l-.052-.012c-.511-.144-1.018-.292-1.529-.447q-1.246-.377-2.484-.8h0a65.027,65.027,0,0,1-25.77-16.042c-6.613-11.3-8.19-56.368-8.19-56.368a41.12,41.12,0,0,0,3.518,3.291,55.212,55.212,0,0,0,10,6.545c28.873,14.979,75.729,13.095,79.93,8.677C217.586,237.458,220.8,270.823,219.823,283.5Z" transform="translate(-124.139 -218.142)" fill="url(#l)"/><path d="M195.153,307.281c7.459-1.861,15.429,3.209,15.289,15.3-.13,11.293-10.4,11.835-15.282,7.451C190.418,325.782,186.343,309.478,195.153,307.281Z" transform="translate(-159.822 -265.825)" opacity="0.25" style="mix-blend-mode:overlay;isolation:isolate"/><path d="M192.813,306.027c7.459-1.861,15.429,3.209,15.29,15.3-.131,11.293-10.4,11.835-15.282,7.452C188.078,324.528,184,308.225,192.813,306.027Z" transform="translate(-158.553 -265.145)" fill="#6c5ed1"/><path d="M191.656,307.926c7.557-1.409,15.208,4.13,14.342,16.2-.809,11.264-11.088,11.189-15.7,6.519C185.818,326.109,182.731,309.59,191.656,307.926Z" transform="translate(-157.634 -266.261)" fill="#8a77e5"/><path d="M218.561,356.046a83.413,83.413,0,0,1-15.615-3.111l-.557-19.167a1.936,1.936,0,0,1,1.032-2.418c1.63-.849,3.933.177,4.415,3.389S213.188,354.056,218.561,356.046Z" transform="translate(-166.498 -278.921)" opacity="0.25" style="mix-blend-mode:overlay;isolation:isolate"/><path d="M209.251,365.6a5.164,5.164,0,0,1-.883,2.194c-1.467,2.024-4.36,2.466-7.036,1.841-3.342-.781-4.517-26.856-3.926-31.407a3.308,3.308,0,0,1,.061-.387,6.465,6.465,0,0,1,2.988-4.279s3.226-.4,3.226,3.552c-.4,1.053-1.372,1.453-1.61,2.5S209.9,361.725,209.251,365.6Z" transform="translate(-163.776 -280.266)" fill="url(#m)"/><path d="M178.871,272.008a69.62,69.62,0,0,0,32.147,5.678" transform="translate(-153.808 -246.907)" fill="none" stroke="#000" stroke-linecap="round" stroke-linejoin="round" stroke-width="4.45" opacity="0.15" style="mix-blend-mode:overlay;isolation:isolate"/><path d="M208.367,373.327c-1.467,2.024-4.36,2.466-7.036,1.841-3.342-.781-4.517-26.856-3.926-31.407.428.218.971.971,1.535,3.03,1.209,4.449,4.055,26.061,9.2,26.51C208.218,373.307,208.293,373.314,208.367,373.327Z" transform="translate(-163.776 -285.803)" opacity="0.25" style="mix-blend-mode:overlay;isolation:isolate"/><path d="M182.957,359.824s-2.632.613-1.179,8.48,5.205,16.1-1.332,19.366" transform="translate(-154.663 -294.511)" fill="none" stroke="#c14aff" stroke-linecap="round" stroke-linejoin="round" stroke-width="1.483"/><path d="M164.418,351.766s-3.269.93-3.269,5.339,8.111,13.608,5.81,19.781" transform="translate(-144.202 -290.143)" fill="none" stroke="#c14aff" stroke-linecap="round" stroke-linejoin="round" stroke-width="1.483"/><path d="M202.227,385.423s13.275-.754,22.213,6.589,4.9,22.474,2.481,22.717-20.091-3.188-23.6-4.8a57.15,57.15,0,0,1-8.6-5.609" transform="translate(-162.401 -308.376)" opacity="0.25" style="mix-blend-mode:overlay;isolation:isolate"/></g><g transform="translate(122.639 80.326)"><path d="M370.9,314.4l-9.781,13.72-2.771-10.188a8.8,8.8,0,0,1,1.487-4.313l.218.013.713.055,7.682.537v.007l.727.048Z" transform="translate(-350.118 -278.621)" opacity="0.25" style="mix-blend-mode:overlay;isolation:isolate"/><path d="M357.448,258.243s-.1.041-.272.122c-.3.136-.822.387-1.487.727-2.425,1.229-6.69,3.688-8.382,6.419-.1.163-.19.319-.272.482-.353-.611-.686-1.2-.992-1.752-1.766-3.151-2.921-5.495-3.62-7,.007-.034.007-.061.014-.088-.142-.265-.285-.537-.414-.808-.224-.5-.353-.822-.414-.978a.439.439,0,0,1-.034-.082.021.021,0,0,1-.007-.014s-.006-.027-.027-.088c-.068-.2-.238-.713-.462-1.4a.05.05,0,0,0-.007-.027c-1.922-6.894.332-15.126,4.877-16.573,0,0,2.058.326,4.782,5.291a142.827,142.827,0,0,1,6.106,14.141C357.217,257.625,357.448,258.243,357.448,258.243Z" transform="translate(-340.383 -237.187)" fill="#0d003d"/><path d="M359.388,288.313a19.212,19.212,0,0,1-.727,4.014c-1.61,5.651-5.2,11.105-4.965,12.749.876,3.057-.421,9.319-.727,10.834a3.932,3.932,0,0,1-.217.74c-.333.781-.781.8-.781.8a4.138,4.138,0,0,1-.36.584v.014a6.14,6.14,0,0,1-.774.924,4.626,4.626,0,0,1-.469.414,1.906,1.906,0,0,1-.387.6,3.014,3.014,0,0,1-.408.374,4.676,4.676,0,0,1-.9.564l-.007.014c-.115.149-1.3,1.664-1.956.713-.7-1-1.27-10.8-1.27-10.8s-1.82,3.206-2.181,3.233-.482-2.541-.21-3.6a4.272,4.272,0,0,1,.658-1.216v-.007a18.423,18.423,0,0,0,1.949-2.887c.394-.991,2.119-10.677,2.771-14.372.1-.591.177-1.033.218-1.257v-.007c.02-.109.027-.163.027-.163a10.769,10.769,0,0,1,2.017-2.289,31.9,31.9,0,0,1,6.365-4.13c.666-.339,1.189-.591,1.487-.727A9.686,9.686,0,0,1,359.388,288.313Z" transform="translate(-341.747 -262.258)" fill="url(#n)"/><path d="M364.148,281.247s-.1.041-.272.122c-.3.136-.822.387-1.487.727-2.425,1.229-6.69,3.688-8.382,6.419-.1.163-.19.319-.272.482-.353-.611-.686-1.2-.992-1.752a16.727,16.727,0,0,1,10.793-7.621C363.917,280.629,364.148,281.247,364.148,281.247Z" transform="translate(-347.084 -260.192)" fill="url(#o)"/><path d="M366.189,288.313a19.218,19.218,0,0,1-.727,4.014c-.095-2.452-1.324-3.647-3.844-3.566a13.04,13.04,0,0,0-6.174,1.983c.02-.109.027-.163.027-.163a10.77,10.77,0,0,1,2.017-2.289,31.9,31.9,0,0,1,6.365-4.13c.666-.339,1.189-.591,1.487-.727A9.687,9.687,0,0,1,366.189,288.313Z" transform="translate(-348.548 -262.258)" opacity="0.25" style="mix-blend-mode:overlay;isolation:isolate"/><path d="M346.725,317.492a4.222,4.222,0,0,1-2.065,1.929v-.007a18.43,18.43,0,0,0,1.949-2.887c.394-.991,2.119-10.677,2.771-14.372a1.284,1.284,0,0,1,.441.747C350.148,304.335,347.574,315.977,346.725,317.492Z" transform="translate(-342.702 -272.405)" fill="#fff" opacity="0.25" style="mix-blend-mode:overlay;isolation:isolate"/></g></g></g></g></svg>