<svg xmlns="http://www.w3.org/2000/svg" width="20.005" height="20.413" viewBox="0 0 20.005 20.413"><path d="M140.348,108.848a8.746,8.746,0,0,0-.215-2.087H130.55v3.788h5.625a4.988,4.988,0,0,1-2.087,3.311l-.019.127,3.03,2.347.21.021a9.979,9.979,0,0,0,3.039-7.507" transform="translate(-120.344 -98.414)" fill="#4285f4"/><path d="M23.043,164.558a9.728,9.728,0,0,0,6.759-2.472l-3.221-2.495a6.041,6.041,0,0,1-3.538,1.021,6.144,6.144,0,0,1-5.806-4.241l-.12.01-3.151,2.438-.041.115a10.2,10.2,0,0,0,9.118,5.625" transform="translate(-12.836 -144.145)" fill="#34a853"/><path d="M4.4,77.962a6.283,6.283,0,0,1-.34-2.019,6.6,6.6,0,0,1,.329-2.019l-.006-.135-3.19-2.477-.1.05a10.185,10.185,0,0,0,0,9.163L4.4,77.962" transform="translate(0 -65.737)" fill="#fbbc05"/><path d="M23.043,3.946a5.657,5.657,0,0,1,3.946,1.52l2.88-2.812A9.806,9.806,0,0,0,23.043,0a10.2,10.2,0,0,0-9.118,5.625l3.3,2.563a6.17,6.17,0,0,1,5.818-4.241" transform="translate(-12.836)" fill="#eb4335"/></svg>