<svg xmlns="http://www.w3.org/2000/svg" width="225" height="27.476" viewBox="0 0 225 27.476"><g transform="translate(-50.294 -26.762)"><path d="M55.374,26.929a.754.754,0,0,1,.853.853V37.863H74.374V27.782a.754.754,0,0,1,.853-.853h4.187q.893,0,.892.853V53.218q0,.854-.892.853H75.227a.754.754,0,0,1-.853-.853V42.9H56.227V53.218a.754.754,0,0,1-.853.853H51.186q-.893,0-.892-.853V27.782q0-.854.892-.853Z" fill="#fff"/><path d="M113.924,26.929q.891,0,.892.853v3.683q0,.854-.892.853H96.979a10.408,10.408,0,0,0-2.5.252,3.387,3.387,0,0,0-1.59.853,3.263,3.263,0,0,0-.833,1.629,11.734,11.734,0,0,0-.233,2.54v.388H113.73a.754.754,0,0,1,.853.853V41.9a.754.754,0,0,1-.853.853H91.822v.659a11.734,11.734,0,0,0,.233,2.54,3.251,3.251,0,0,0,.833,1.628,3.362,3.362,0,0,0,1.59.854,10.357,10.357,0,0,0,2.5.252h16.945q.891,0,.892.853v3.683q0,.854-.892.853H96.863a19.8,19.8,0,0,1-5-.543,7.63,7.63,0,0,1-3.354-1.764,7.117,7.117,0,0,1-1.9-3.179,16.329,16.329,0,0,1-.6-4.75v-6.67a16.128,16.128,0,0,1,.6-4.73,7.117,7.117,0,0,1,1.9-3.16,7.79,7.79,0,0,1,3.354-1.784,19.188,19.188,0,0,1,5-.562Z" fill="#fff"/><path d="M125.168,26.929a.754.754,0,0,1,.854.853V43.253a11.01,11.01,0,0,0,.252,2.579,3.471,3.471,0,0,0,.833,1.628,3.238,3.238,0,0,0,1.571.853,10.307,10.307,0,0,0,2.5.252h15.7a.754.754,0,0,1,.853.853v3.8a.754.754,0,0,1-.853.853H130.946a19.8,19.8,0,0,1-5-.543,7.636,7.636,0,0,1-3.354-1.764,7.126,7.126,0,0,1-1.9-3.179,16.329,16.329,0,0,1-.6-4.75V27.782q0-.854.892-.853Z" fill="#fff"/><path d="M157.2,26.929a.754.754,0,0,1,.853.853V53.218a.754.754,0,0,1-.853.853h-4.188q-.893,0-.892-.853V27.782q0-.854.892-.853Z" fill="#fff"/><path d="M194.3,26.929c.362,0,.563.123.6.368a.7.7,0,0,1-.213.64L182.788,40l12.447,13.067a.705.705,0,0,1,.213.64c-.039.246-.239.368-.6.368h-5.312a1.9,1.9,0,0,1-.737-.116,1.269,1.269,0,0,1-.5-.427l-9.577-10.042L169.1,53.528a1.644,1.644,0,0,1-.523.427,1.878,1.878,0,0,1-.756.116H162.78c-.336,0-.523-.122-.562-.368a.705.705,0,0,1,.213-.64L175.188,39.8,163.672,27.937a.812.812,0,0,1-.194-.64c.026-.245.219-.368.582-.368h5.312a1.675,1.675,0,0,1,.737.135,1.649,1.649,0,0,1,.5.408l8.453,8.995,8.957-8.995a1.637,1.637,0,0,1,.5-.408,1.669,1.669,0,0,1,.737-.135Z" fill="#fff"/><path d="M204.618,26.929a.754.754,0,0,1,.853.853V53.218a.754.754,0,0,1-.853.853h-4.187q-.893,0-.892-.853V27.782q0-.854.892-.853Z" fill="#fff"/><path d="M273.433,26.929a.754.754,0,0,1,.853.853v3.683a.754.754,0,0,1-.853.853H254.007a1.924,1.924,0,0,0-1.59.582,2.479,2.479,0,0,0-.465,1.59v1.318q0,2.172,2.016,2.172h14.541a6.847,6.847,0,0,1,5.079,1.725,6.74,6.74,0,0,1,1.706,4.944v3.1a6.348,6.348,0,0,1-1.667,4.575q-1.668,1.746-5.2,1.745H246.95q-.893,0-.892-.853V49.535q0-.854.892-.853h20.357A1.924,1.924,0,0,0,268.9,48.1a2.472,2.472,0,0,0,.466-1.59V44.92q0-2.17-2.017-2.171H252.8a6.844,6.844,0,0,1-5.08-1.726,6.728,6.728,0,0,1-1.706-4.943V33.249a6.348,6.348,0,0,1,1.667-4.575q1.668-1.746,5.2-1.745Z" fill="#fff"/><path d="M230,41.388V26.762c.466.258.917.5,1.364.756q.839.473,1.673.954c.8.46,1.589.924,2.386,1.384.281.162.567.316.851.474a.84.84,0,0,1,.485.809c-.015,1.939-.008,3.877-.006,5.816a.917.917,0,0,1-.515.868c-1.167.657-2.323,1.335-3.483,2q-1.329.765-2.661,1.526A.732.732,0,0,1,230,41.388Z" fill="#fe002a"/><path d="M240.089,36.79c0,1.538,0,3.021,0,4.5,0,.912.005,1.825.019,2.737a.776.776,0,0,1-.434.753q-2.579,1.466-5.148,2.949a.794.794,0,0,1-.871.006q-3-1.741-6-3.465c-.084-.048-.165-.1-.278-.172Z" fill="#fff"/><path d="M223.69,43.174l12.736,7.335c-.263.16-.5.312-.75.454q-1.78,1.029-3.565,2.053-.979.564-1.96,1.123a.755.755,0,0,1-.811-.044c-1.349-.787-2.7-1.565-4.053-2.349-.432-.251-.857-.515-1.288-.766a.627.627,0,0,1-.325-.57q-.006-3.569,0-7.136A.693.693,0,0,1,223.69,43.174Z" fill="#fe002a"/><path d="M212.7,44.109v-.28c0-2.224.015-4.447-.012-6.671a1.023,1.023,0,0,1,.615-1.02c1.316-.731,2.616-1.492,3.921-2.243.392-.226.79-.442,1.168-.688.338-.219.6-.023.859.125.768.429,1.53.868,2.291,1.309.988.572,1.973,1.149,2.959,1.723.233.136.463.277.7.4.131.067.084.115,0,.162-.624.362-1.25.72-1.875,1.08l-2.388,1.378-2,1.156q-1.214.7-2.428,1.4c-.681.391-1.365.775-2.045,1.166-.488.281-.97.571-1.457.854C212.922,44.018,212.818,44.055,212.7,44.109Z" fill="#fe002a"/><path d="M222.642,39.619V54.165c-.557-.316-1.093-.616-1.626-.924-1.487-.858-2.97-1.723-4.46-2.576a.854.854,0,0,1-.483-.826c.016-1.988.012-3.976.014-5.964a.8.8,0,0,1,.427-.758c1.941-1.114,3.874-2.239,5.811-3.358A3.018,3.018,0,0,1,222.642,39.619Z" fill="#fff"/><path d="M228.957,37.755l-12.519-7.221c.069-.047.116-.084.168-.114q3-1.739,5.995-3.479a.738.738,0,0,1,.819.007q2.523,1.463,5.057,2.905a.886.886,0,0,1,.512.82q-.015,3.481-.019,6.965C228.97,37.662,228.965,37.686,228.957,37.755Z" fill="#fff"/><path d="M223.336,51.319l2.477,1.43-1.086.635c-.407.237-.813.475-1.222.708-.062.036-.168.152-.168-.047C223.336,53.153,223.336,52.261,223.336,51.319Z" fill="#fff"/><path d="M215.492,43.223v1.922c0,.252,0,.5,0,.756,0,.132-.041.157-.157.09q-1.089-.629-2.182-1.25c-.108-.062-.161-.1-.013-.184.742-.421,1.482-.849,2.223-1.273C215.4,43.265,215.429,43.252,215.492,43.223Z" fill="#fe002a"/><path d="M229.344,26.887v2.775c-.26-.145-.5-.274-.738-.412q-.739-.431-1.475-.868a1.085,1.085,0,0,1-.124-.1.871.871,0,0,1,.121-.1C227.856,27.755,228.586,27.329,229.344,26.887Z" fill="#fe002a"/><path d="M236.7,47.212c0,.9,0,1.752,0,2.6,0,.129-.036.163-.158.093-.684-.4-1.372-.794-2.058-1.191-.1-.059-.179-.136-.033-.22C235.186,48.071,235.923,47.655,236.7,47.212Z" fill="#fe002a"/><path d="M216.113,33.8V31.1l2.341,1.341Z" fill="#fff"/><path d="M239.618,36.309,237.4,37.6V35.041Z" fill="#fff"/></g></svg>