<svg xmlns="http://www.w3.org/2000/svg" width="15" height="15.003" viewBox="0 0 15 15.003"><g transform="translate(-0.449)"><path d="M15.41,4.411a5.482,5.482,0,0,0-.349-1.82,3.843,3.843,0,0,0-2.2-2.2,5.5,5.5,0,0,0-1.82-.349C10.243.009,9.988,0,7.951,0S5.66.009,4.859.044a5.484,5.484,0,0,0-1.82.349,3.661,3.661,0,0,0-1.331.868A3.694,3.694,0,0,0,.844,2.588,5.5,5.5,0,0,0,.5,4.408c-.038.8-.047,1.058-.047,3.1s.009,2.292.044,3.092a5.482,5.482,0,0,0,.349,1.82,3.843,3.843,0,0,0,2.2,2.2,5.5,5.5,0,0,0,1.82.349c.8.035,1.055.044,3.092.044s2.292-.009,3.092-.044a5.481,5.481,0,0,0,1.82-.349,3.837,3.837,0,0,0,2.2-2.2,5.5,5.5,0,0,0,.349-1.82c.035-.8.044-1.055.044-3.092s0-2.292-.038-3.092Zm-1.351,6.125a4.112,4.112,0,0,1-.258,1.392,2.489,2.489,0,0,1-1.424,1.424,4.127,4.127,0,0,1-1.392.258c-.791.035-1.029.044-3.03.044s-2.242-.009-3.031-.044a4.11,4.11,0,0,1-1.392-.258,2.309,2.309,0,0,1-.862-.56,2.333,2.333,0,0,1-.56-.862,4.127,4.127,0,0,1-.258-1.392c-.035-.791-.044-1.029-.044-3.031s.009-2.242.044-3.03A4.11,4.11,0,0,1,2.11,3.086a2.28,2.28,0,0,1,.563-.862,2.329,2.329,0,0,1,.862-.56,4.13,4.13,0,0,1,1.392-.258c.791-.035,1.029-.044,3.03-.044s2.242.009,3.031.044a4.112,4.112,0,0,1,1.392.258,2.307,2.307,0,0,1,.862.56,2.332,2.332,0,0,1,.56.862,4.129,4.129,0,0,1,.258,1.392c.035.791.044,1.029.044,3.03s-.009,2.236-.044,3.028Zm0,0" transform="translate(0 0)" fill="#fff"/><path d="M128.8,124.5a3.854,3.854,0,1,0,3.854,3.854A3.855,3.855,0,0,0,128.8,124.5Zm0,6.354a2.5,2.5,0,1,1,2.5-2.5A2.5,2.5,0,0,1,128.8,130.854Zm0,0" transform="translate(-120.852 -120.851)" fill="#fff"/><path d="M364.249,89.5a.9.9,0,1,1-.9-.9A.9.9,0,0,1,364.249,89.5Zm0,0" transform="translate(-351.392 -86.005)" fill="#fff"/></g></svg>