<svg xmlns="http://www.w3.org/2000/svg" width="28" height="27.886" viewBox="0 0 28 27.886"><path d="M136,120.676h5.46v2.562a2.234,2.234,0,0,0,.27-.255,5.941,5.941,0,0,1,4.408-2.77,8.783,8.783,0,0,1,3.91.389,5.132,5.132,0,0,1,3.334,3.468,9.549,9.549,0,0,1,.523,2.738c.056,1.83.132,3.66.14,5.5.01,2.239-.04,4.478-.065,6.718,0,.059-.007.119-.012.2h-5.7v-.433c0-3.244.02-6.488-.017-9.731a8.121,8.121,0,0,0-.354-2.074,2.366,2.366,0,0,0-2.311-1.778,3.453,3.453,0,0,0-2.671.722,3.17,3.17,0,0,0-1,1.858,10.7,10.7,0,0,0-.22,1.964c-.023,3-.01,6-.01,9v.468H136Z" transform="translate(-126.045 -111.35)" fill="#fff"/><path d="M12.556,146.128H6.89V127.58h5.666Z" transform="translate(-6.385 -118.242)" fill="#fff"/><path d="M6.63,3.313a3.227,3.227,0,0,1-3.31,3.334A3.238,3.238,0,0,1,0,3.336,3.276,3.276,0,0,1,3.574,0,3.264,3.264,0,0,1,6.63,3.313Z" transform="translate(0.005 0.001)" fill="#fff"/></svg>