<svg xmlns="http://www.w3.org/2000/svg" width="24" height="24" viewBox="0 0 24 24"><g transform="translate(757.094 -244)"><g transform="translate(-757.094 244)"><path d="M-734.869,244h-20.454a1.751,1.751,0,0,0-1.77,1.73v20.538a1.752,1.752,0,0,0,1.77,1.732h20.454a1.756,1.756,0,0,0,1.775-1.732V245.73A1.755,1.755,0,0,0-734.869,244Z" transform="translate(757.094 -244)" fill="#006aa8"/><path d="M-701.3,305.724h3.563v11.453H-701.3Zm1.783-5.693a2.065,2.065,0,0,1,2.063,2.064,2.065,2.065,0,0,1-2.063,2.064,2.063,2.063,0,0,1-2.065-2.064,2.063,2.063,0,0,1,2.065-2.064" transform="translate(704.855 -296.727)" fill="#fff"/><path d="M-598.5,392.045h3.412v1.566h.049a3.739,3.739,0,0,1,3.368-1.85c3.6,0,4.27,2.371,4.27,5.456V403.5h-3.559v-5.57c0-1.328-.023-3.037-1.85-3.037-1.852,0-2.135,1.448-2.135,2.942V403.5H-598.5Z" transform="translate(607.849 -383.048)" fill="#fff"/></g></g></svg>