<svg xmlns="http://www.w3.org/2000/svg" width="23" height="17.52" viewBox="0 0 23 17.52"><g transform="translate(0 -61)" opacity="0.75"><g transform="translate(0 61)"><path d="M20.979,61H2.021A2.025,2.025,0,0,0,0,63.021V76.5A2.025,2.025,0,0,0,2.021,78.52H20.979A2.025,2.025,0,0,0,23,76.5V63.021A2.025,2.025,0,0,0,20.979,61ZM20.7,62.348,11.543,71.5,2.307,62.348ZM1.348,76.219V63.294l6.49,6.435Zm.953.953,6.494-6.494,2.276,2.256a.674.674,0,0,0,.951,0l2.219-2.219L20.7,77.172Zm19.352-.953L15.193,69.76,21.652,63.3Z" transform="translate(0 -61)" fill="#fff"/></g></g></svg>