<svg xmlns="http://www.w3.org/2000/svg" width="23" height="23" viewBox="0 0 23 23"><g opacity="0.75"><path d="M21.154,15.1a13.059,13.059,0,0,1-4.1-.653,1.805,1.805,0,0,0-1.823.384L12.644,16.78a14.292,14.292,0,0,1-6.426-6.424L8.113,7.837a1.859,1.859,0,0,0,.457-1.884,13.079,13.079,0,0,1-.656-4.108A1.848,1.848,0,0,0,6.069,0H1.846A1.848,1.848,0,0,0,0,1.846,21.178,21.178,0,0,0,21.154,23,1.848,1.848,0,0,0,23,21.154V16.942A1.848,1.848,0,0,0,21.154,15.1Zm.568,6.058a.568.568,0,0,1-.568.568A19.9,19.9,0,0,1,1.278,1.846a.568.568,0,0,1,.568-.568H6.069a.568.568,0,0,1,.568.568,14.328,14.328,0,0,0,.717,4.5.636.636,0,0,1-.2.655l-2.2,2.909a.639.639,0,0,0-.06.674A15.861,15.861,0,0,0,12.415,18.1a.636.636,0,0,0,.676-.059l2.975-2.254a.564.564,0,0,1,.579-.135,14.347,14.347,0,0,0,4.508.72.568.568,0,0,1,.568.568Z" fill="#fff"/></g></svg>