<?xml version="1.0" encoding="utf-8"?>
<!-- Generator: Adobe Illustrator 24.0.1, SVG Export Plug-In . SVG Version: 6.00 Build 0)  -->
<svg version="1.1" id="Layer_1" xmlns="http://www.w3.org/2000/svg" xmlns:xlink="http://www.w3.org/1999/xlink" x="0px" y="0px"
	 viewBox="0 0 455 455" style="enable-background:new 0 0 455 455;" xml:space="preserve">
<style type="text/css">
	.st0{fill:#FFFFFF;}
</style>
<g>
	<path class="st0" d="M182.8,401.7c-3.3-0.4-6.6-0.7-9.8-1.4c-32.1-6.6-52.2-26-60.9-57.4c-0.6-2-1.4-3-3.3-3.8
		c-31.8-13.2-63.6-26.5-95.4-39.7c-2.3-1-3.6-2.2-4.3-4.8c-7.6-29.2-10.5-58.9-8.5-89c0-0.7,0.2-1.5,0.4-2.6c4.7,2,9.3,3.9,13.8,5.8
		c42,17.5,84,35.1,125.9,52.6c1.7,0.7,2.9,0.6,4.5-0.4c13.1-8.4,27.5-12.4,43-11.9c1.7,0.1,2.2-0.8,2.9-1.8
		c11.1-16.2,22.2-32.4,33.2-48.6c9.2-13.4,18.3-26.7,27.4-40.2c1-1.5,1.6-3.5,1.7-5.3c1.1-46.2,31.5-85.6,76.2-96.7
		c35.3-8.8,66.8-0.1,93.4,24.6c17.4,16.2,27.4,36.5,30.8,60c0.5,3.6,0.8,7.2,1.2,10.8c0,1.8,0,3.7,0,5.5c-0.1,0.8-0.4,1.6-0.4,2.4
		c-1.4,25.6-11,47.8-28.9,66.1c-19.7,20.2-44,30.2-72.2,30.4c-1.1,0-2.3,0.4-3.2,1c-29.2,20.9-58.3,41.9-87.5,62.9
		c-1.4,1-1.8,2-1.9,3.7c-0.6,6.7-0.6,13.6-2.4,20c-8.6,30.7-28.7,49.6-60,56.2c-3.4,0.7-6.8,1-10.2,1.5
		C186.5,401.7,184.6,401.7,182.8,401.7z M287.1,154.7c0,37.6,29.9,67.7,67.3,67.7c36.9,0.1,66.7-30.3,66.7-67.8
		c0-38-31.4-68.1-68-67.7C316.8,87.4,287,117.6,287.1,154.7z M165.6,271.7c0.9,0.4,1.5,0.8,2.1,1c10.3,4.3,20.5,8.6,30.8,12.8
		c17.8,7.3,28.2,24.6,26.3,43.7c-2.7,27.3-30.8,44.5-56.4,34.4c-9.3-3.7-18.5-7.7-27.8-11.6c-1.8-0.8-3.7-1.5-5.9-2.4
		c12.7,27.3,45.3,40.6,74.6,27.4c28.1-12.7,40.8-47,28-75.4C223.9,271.7,190.7,261.6,165.6,271.7z"/>
	<path class="st0" d="M404.3,153.7c0.7,27.5-21,51.3-49.2,51.6c-28.4,0.3-51.3-22.2-51.4-50c-0.1-28.3,22.1-51.2,49.6-51.3
		C381.4,104,404.2,126.3,404.3,153.7z"/>
</g>
</svg>
