<?xml version="1.0" encoding="utf-8"?>
<!-- Generator: Adobe Illustrator 24.0.1, SVG Export Plug-In . SVG Version: 6.00 Build 0)  -->
<svg version="1.1" id="Layer_1" xmlns="http://www.w3.org/2000/svg" xmlns:xlink="http://www.w3.org/1999/xlink" x="0px" y="0px"
	 viewBox="0 0 24 24" style="enable-background:new 0 0 24 24;" xml:space="preserve">
<style type="text/css">
	.st0{fill:#FFFFFF;}
</style>
<path class="st0" d="M9.4,17.2c0.4-1-0.1-2.2-1.1-2.6l-1.8-0.7c0.3-0.1,0.7-0.2,1-0.2c1.5,0,2.8,1.2,2.8,2.8c0,1.5-1.2,2.8-2.8,2.8
	c-1.2,0-2.1-0.7-2.6-1.7l1.8,0.7C7.8,18.7,9,18.2,9.4,17.2z M19,0H5C2.2,0,0,2.2,0,5v6l5.6,2.3c0.6-0.4,1.3-0.6,2-0.6l3-4.2
	C10.7,6,12.8,4,15.3,4C17.9,4,20,6.1,20,8.7c0,2.6-2.1,4.7-4.7,4.7l-4.1,3.1l0,0c0,2-1.6,3.6-3.6,3.6c-1.8,0-3.2-1.2-3.6-2.9l-4-1.7
	V19c0,2.8,2.2,5,5,5h14c2.8,0,5-2.2,5-5V5C24,2.2,21.8,0,19,0z M15.3,11.9c-1.8,0-3.2-1.4-3.2-3.2s1.4-3.2,3.2-3.2
	c1.8,0,3.2,1.4,3.2,3.2S17.1,11.9,15.3,11.9z M15.3,11.1c1.3,0,2.4-1.1,2.4-2.4c0-1.3-1.1-2.4-2.4-2.4c-1.3,0-2.4,1.1-2.4,2.4
	C12.9,10,14,11.1,15.3,11.1z"/>
</svg>
