<svg xmlns="http://www.w3.org/2000/svg" xmlns:xlink="http://www.w3.org/1999/xlink" width="691.792" height="88" viewBox="0 0 691.792 88"><defs><filter id="a" x="23.221" y="21" width="45.915" height="67" filterUnits="userSpaceOnUse"><feOffset dy="3" input="SourceAlpha"/><feGaussianBlur stdDeviation="3" result="b"/><feFlood flood-opacity="0.4"/><feComposite operator="in" in2="b"/><feComposite in="SourceGraphic"/></filter><filter id="c" x="65.22" y="21" width="70.72" height="67" filterUnits="userSpaceOnUse"><feOffset dy="3" input="SourceAlpha"/><feGaussianBlur stdDeviation="3" result="d"/><feFlood flood-opacity="0.4"/><feComposite operator="in" in2="d"/><feComposite in="SourceGraphic"/></filter><filter id="e" x="0" y="0" width="217.184" height="88" filterUnits="userSpaceOnUse"><feOffset dy="3" input="SourceAlpha"/><feGaussianBlur stdDeviation="3" result="f"/><feFlood flood-opacity="0.4"/><feComposite operator="in" in2="f"/><feComposite in="SourceGraphic"/></filter><filter id="g" x="228.67" y="0" width="82.927" height="88" filterUnits="userSpaceOnUse"><feOffset dy="3" input="SourceAlpha"/><feGaussianBlur stdDeviation="3" result="h"/><feFlood flood-opacity="0.4"/><feComposite operator="in" in2="h"/><feComposite in="SourceGraphic"/></filter><filter id="i" x="150.623" y="0" width="97.975" height="88" filterUnits="userSpaceOnUse"><feOffset dy="3" input="SourceAlpha"/><feGaussianBlur stdDeviation="3" result="j"/><feFlood flood-opacity="0.4"/><feComposite operator="in" in2="j"/><feComposite in="SourceGraphic"/></filter><filter id="k" x="286.094" y="0" width="115.2" height="32" filterUnits="userSpaceOnUse"><feOffset dy="3" input="SourceAlpha"/><feGaussianBlur stdDeviation="3" result="l"/><feFlood flood-opacity="0.4"/><feComposite operator="in" in2="l"/><feComposite in="SourceGraphic"/></filter><filter id="m" x="287.916" y="21" width="75.927" height="67" filterUnits="userSpaceOnUse"><feOffset dy="3" input="SourceAlpha"/><feGaussianBlur stdDeviation="3" result="n"/><feFlood flood-opacity="0.4"/><feComposite operator="in" in2="n"/><feComposite in="SourceGraphic"/></filter><filter id="o" x="339.367" y="0" width="113.464" height="88" filterUnits="userSpaceOnUse"><feOffset dy="3" input="SourceAlpha"/><feGaussianBlur stdDeviation="3" result="p"/><feFlood flood-opacity="0.4"/><feComposite operator="in" in2="p"/><feComposite in="SourceGraphic"/></filter><filter id="q" x="456.134" y="38.5" width="66.779" height="49.5" filterUnits="userSpaceOnUse"><feOffset dy="3" input="SourceAlpha"/><feGaussianBlur stdDeviation="3" result="r"/><feFlood flood-opacity="0.4"/><feComposite operator="in" in2="r"/><feComposite in="SourceGraphic"/></filter><filter id="s" x="425.894" y="0" width="86.436" height="49.5" filterUnits="userSpaceOnUse"><feOffset dy="3" input="SourceAlpha"/><feGaussianBlur stdDeviation="3" result="t"/><feFlood flood-opacity="0.4"/><feComposite operator="in" in2="t"/><feComposite in="SourceGraphic"/></filter><filter id="u" x="427.915" y="21" width="45.916" height="67" filterUnits="userSpaceOnUse"><feOffset dy="3" input="SourceAlpha"/><feGaussianBlur stdDeviation="3" result="v"/><feFlood flood-opacity="0.4"/><feComposite operator="in" in2="v"/><feComposite in="SourceGraphic"/></filter><filter id="w" x="489.866" y="21" width="103.048" height="67" filterUnits="userSpaceOnUse"><feOffset dy="3" input="SourceAlpha"/><feGaussianBlur stdDeviation="3" result="x"/><feFlood flood-opacity="0.4"/><feComposite operator="in" in2="x"/><feComposite in="SourceGraphic"/></filter><filter id="y" x="578.414" y="21" width="81" height="67" filterUnits="userSpaceOnUse"><feOffset dy="3" input="SourceAlpha"/><feGaussianBlur stdDeviation="3" result="z"/><feFlood flood-opacity="0.4"/><feComposite operator="in" in2="z"/><feComposite in="SourceGraphic"/></filter><filter id="aa" x="523.817" y="0" width="167.975" height="32" filterUnits="userSpaceOnUse"><feOffset dy="3" input="SourceAlpha"/><feGaussianBlur stdDeviation="3" result="ab"/><feFlood flood-opacity="0.4"/><feComposite operator="in" in2="ab"/><feComposite in="SourceGraphic"/></filter></defs><g transform="translate(-3151.704 -20.306)"><g transform="matrix(1, 0, 0, 1, 3151.7, 20.31)" filter="url(#a)"><path d="M3276.809,180.306h17.5l10.415-49h-17.5Z" transform="translate(-3244.59 -104.31)" fill="#fff"/></g><g transform="matrix(1, 0, 0, 1, 3151.7, 20.31)" filter="url(#c)"><path d="M3511,148.806l3.72-17.5h-17.5l-10.415,49h17.5l3.72-17.5h31.5l-11.024-14Z" transform="translate(-3412.58 -104.31)" fill="#fff"/></g><g transform="matrix(1, 0, 0, 1, 3151.7, 20.31)" filter="url(#e)"><path d="M3337.839,47.306h-21l22.048,28-8.488,7h-14l-4.244,3.5-46.853-59.5H3160.7l10.624,14h84l44.1,56h35l25.464-21Z" transform="translate(-3151.7 -20.31)" fill="#fff"/></g><g transform="matrix(1, 0, 0, 1, 3151.7, 20.31)" filter="url(#g)"><path d="M4347.982,26.306l-33.952,28h-7l-2.976,14h7l22.049,28h21l-27.561-35,42.439-35Z" transform="translate(-4066.39 -20.31)" fill="#fff"/></g><g transform="matrix(1, 0, 0, 1, 3151.7, 20.31)" filter="url(#i)"><path d="M3990.3,26.306h-59.5l-16.976,14h59.5l-11.9,56h17.5l14.879-70Z" transform="translate(-3754.2 -20.31)" fill="#fff"/></g><g transform="matrix(1, 0, 0, 1, 3151.7, 20.31)" filter="url(#k)"><path d="M4671.4,40.306l16.976-14h-97.2l10.224,14Z" transform="translate(-4296.08 -20.31)" fill="red"/></g><g transform="matrix(1, 0, 0, 1, 3151.7, 20.31)" filter="url(#m)"><path d="M4626.709,138.306l1.488-7h-17.5l-10.416,49h17.5l5.951-28h17.5l16.975-14Z" transform="translate(-4303.37 -104.31)" fill="red"/></g><g transform="matrix(1, 0, 0, 1, 3151.7, 20.31)" filter="url(#o)"><path d="M4936.468,26.306h-28l-16.976,14h35l8.269,10.5-6.7,31.5h-38.5l-11.024-14,25.463-21h-21l-25.463,21,22.048,28h63l10.416-49Z" transform="translate(-4509.17 -20.31)" fill="red"/></g><g transform="matrix(1, 0, 0, 1, 3151.7, 20.31)" filter="url(#q)"><path d="M5444.353,218.806l-2.975,14h14l13.78,17.5h21l-24.8-31.5Z" transform="translate(-4976.24 -174.31)" fill="red"/></g><g transform="matrix(1, 0, 0, 1, 3151.7, 20.31)" filter="url(#s)"><path d="M5332.1,40.306l5.512,7-12.732,10.5h21l12.732-10.5-16.536-21h-51.9l10.424,14Z" transform="translate(-4855.28 -20.31)" fill="red"/></g><g transform="matrix(1, 0, 0, 1, 3151.7, 20.31)" filter="url(#u)"><path d="M5300.279,180.306h17.5l10.416-49h-17.5Z" transform="translate(-4863.36 -104.31)" fill="red"/></g><g transform="matrix(1, 0, 0, 1, 3151.7, 20.31)" filter="url(#w)"><path d="M5642.06,166.306l-11.024-14,25.463-21h-21l-25.463,21,22.048,28h63l-11.024-14Z" transform="translate(-5111.17 -104.31)" fill="red"/></g><g transform="matrix(1, 0, 0, 1, 3151.7, 20.31)" filter="url(#y)"><path d="M6073.249,166.306l2.976-14h17.5l16.976-14h-31.5l1.488-7h-17.5l-10.415,49h63l-11.025-14Z" transform="translate(-5465.36 -104.31)" fill="red"/></g><g transform="matrix(1, 0, 0, 1, 3151.7, 20.31)" filter="url(#aa)"><path d="M5863.269,26.306h-66.5l-16.975,14h133l16.976-14Z" transform="translate(-5246.98 -20.31)" fill="red"/></g></g></svg>
