<?xml version="1.0" encoding="utf-8"?>
<!-- Generator: Adobe Illustrator 24.0.1, SVG Export Plug-In . SVG Version: 6.00 Build 0)  -->
<svg version="1.1" id="Layer_1" xmlns="http://www.w3.org/2000/svg" xmlns:xlink="http://www.w3.org/1999/xlink" x="0px" y="0px"
	 viewBox="0 0 857.6 199.3" style="enable-background:new 0 0 857.6 199.3;" xml:space="preserve">
<style type="text/css">
	.st0{fill:url(#SVGID_1_);}
</style>
<title>Asset 2</title>
<g id="Layer_2_1_">
	<g id="WhatsApp_Logo">
		
			<linearGradient id="SVGID_1_" gradientUnits="userSpaceOnUse" x1="0" y1="100.24" x2="857.7001" y2="100.24" gradientTransform="matrix(1 0 0 -1 0 199.89)">
			<stop  offset="4.469105e-03" style="stop-color:#B621FE"/>
			<stop  offset="1" style="stop-color:#1FD1F9"/>
		</linearGradient>
		<path class="st0" d="M99.6,0C45,0,0.8,44.3,0.8,98.9c0,17.3,4.6,34.3,13.2,49.2L0,199.3l52.3-13.7c14.5,7.9,30.7,12,47.2,12l0,0
			c54.6-0.8,98.2-45.6,97.4-100.2C196.2,43.9,153,0.8,99.6,0z M99.6,180.9L99.6,180.9c-14.7,0-29.1-4-41.8-11.4l-3-1.8l-31.1,8.1
			l8.3-30.3l-2-3.1C6,104,17.6,53.4,56,29.3s89-12.5,113.1,25.9s12.5,89.1-25.9,113.1C130.1,176.6,115,180.9,99.6,180.9z
			 M144.6,119.4c-2.5-1.2-14.6-7.2-16.9-8s-3.9-1.2-5.6,1.2s-6.4,8-7.8,9.7s-2.9,1.8-5.3,0.6s-10.4-3.8-19.8-12.3
			c-5.4-5-10-10.8-13.7-17.1c-1.4-2.5-0.2-3.8,1.1-5s2.5-2.9,3.7-4.3c1-1.3,1.8-2.6,2.5-4.1c0.7-1.4,0.6-3-0.2-4.3
			C82,74.5,77.1,62.4,75,57.4s-4-4.2-5.6-4.2s-3.1-0.1-4.7-0.1c-2.5,0.1-4.9,1.2-6.6,3.1c-2.3,2.5-8.6,8.4-8.6,20.6
			s8.8,23.9,10.1,25.5s17.4,26.6,42.2,37.3c4.6,2,9.3,3.7,14.1,5.2c5,1.5,10.4,1.9,15.5,1c4.7-0.7,14.6-6,16.6-11.7
			s2.1-10.7,1.4-11.7S147.1,120.7,144.6,119.4L144.6,119.4z M319.3,117.9H319l-16.3-66.1H283L266.4,117H266l-15.1-65.2h-21.1
			l25.4,95.9h21.3l16-65.3h0.3l16.2,65.3h20.9l25.8-95.8H335L319.3,117.9z M420,84.3c-2-2.6-4.7-4.6-7.7-5.8
			c-4-1.5-8.3-2.2-12.5-2.1c-3.8,0.1-7.6,1-11,2.8c-3.9,1.9-7.1,5-9.3,8.8H379V51.9h-19v95.9h19v-36.4c0-7.1,1.2-12.2,3.5-15.2
			c2.3-3.1,6.1-4.6,11.3-4.6c4.6,0,7.7,1.4,9.5,4.2c1.8,2.8,2.7,7.1,2.7,12.8v39.2h19.1V105c0-3.9-0.3-7.9-1.1-11.8
			C423.3,90,422,86.9,420,84.3z M498.5,132.3V96.2c0-4.2-0.9-7.6-2.8-10.1c-1.9-2.6-4.4-4.6-7.2-6c-3.1-1.5-6.4-2.4-9.8-2.9
			c-3.5-0.5-7.1-0.7-10.6-0.7c-3.9,0-7.7,0.4-11.5,1.1c-3.6,0.7-7.1,2-10.3,3.8c-3,1.8-5.6,4.2-7.5,7.1c-2.1,3.3-3.3,7.2-3.4,11.1
			h19.1c0.3-3.8,1.6-6.4,3.7-8s5.1-2.4,8.9-2.4c1.6,0,3.2,0.1,4.8,0.3c1.4,0.2,2.7,0.6,3.9,1.3c1.1,0.7,2.1,1.7,2.7,2.8
			c0.7,1.5,1.1,3.2,1,4.9c0.2,1.7-0.4,3.4-1.7,4.5c-1.5,1.2-3.2,2-5.1,2.3c-2.4,0.6-4.9,1-7.4,1.2c-2.8,0.3-5.6,0.6-8.5,1.1
			s-5.7,1.1-8.5,1.8c-2.7,0.7-5.2,1.9-7.5,3.4c-2.2,1.6-4.1,3.7-5.4,6.1c-1.5,3-2.2,6.4-2.1,9.7c-0.1,3.2,0.5,6.3,1.8,9.3
			c1.1,2.5,2.8,4.7,5,6.4s4.8,3,7.5,3.8c3,0.8,6.1,1.2,9.3,1.2c4.3,0,8.5-0.6,12.6-1.9c4.1-1.2,7.8-3.5,10.8-6.6
			c0.1,1.1,0.2,2.3,0.5,3.4c0.2,1.1,0.5,2.2,0.9,3.3H501c-1.1-2-1.7-4.2-1.9-6.4C498.6,138.3,498.5,135.3,498.5,132.3L498.5,132.3z
			 M479.5,120.9c0,1.4-0.1,2.9-0.3,4.3c-0.2,1.9-0.9,3.7-1.8,5.3c-1.1,1.9-2.7,3.4-4.6,4.5c-2,1.3-5,1.9-8.7,1.9
			c-1.5,0-3-0.1-4.4-0.4c-1.3-0.2-2.6-0.7-3.8-1.4c-1.1-0.7-2-1.6-2.5-2.8c-0.7-1.3-1-2.8-0.9-4.3c-0.1-1.5,0.3-3.1,0.9-4.4
			c0.6-1.1,1.5-2.1,2.5-2.9c1.1-0.8,2.3-1.4,3.6-1.8c1.4-0.4,2.8-0.8,4.2-1.1c1.5-0.3,3-0.5,4.6-0.7s3-0.4,4.4-0.7
			c1.3-0.3,2.6-0.6,3.9-1c1.1-0.3,2.1-0.9,3-1.7L479.5,120.9z M534,57.5h-19v20.8h-11.6v12.8H515V132c-0.1,2.9,0.5,5.8,1.7,8.5
			c1.1,2.1,2.7,3.8,4.8,5c2.2,1.2,4.5,2,7,2.4c2.8,0.4,5.6,0.6,8.4,0.6c1.9,0,3.8,0,5.8-0.1c1.8-0.1,3.6-0.3,5.4-0.5V133
			c-0.9,0.2-1.9,0.3-2.8,0.4c-1,0.1-2,0.1-3.1,0.1c-3.2,0-5.4-0.5-6.5-1.6s-1.6-3.2-1.6-6.4V91.1h14V78.3H534V57.5z M612.8,117.3
			c-1.2-2.2-3-4.1-5-5.5c-2.2-1.5-4.5-2.7-7-3.6c-2.7-0.9-5.4-1.7-8.1-2.3c-2.7-0.6-5.3-1.2-7.9-1.8c-2.3-0.5-4.7-1.1-6.9-1.8
			c-1.7-0.6-3.4-1.4-4.8-2.6c-1.2-1-1.9-2.6-1.9-4.2c-0.1-1.2,0.3-2.4,1.1-3.4c0.7-0.8,1.6-1.5,2.6-1.9c1.1-0.5,2.2-0.8,3.4-0.9
			s2.3-0.2,3.5-0.2c3.1-0.1,6.1,0.6,8.9,1.9c2.5,1.3,3.9,3.8,4.2,7.4H613c-0.2-3.8-1.3-7.4-3.3-10.7c-1.8-2.8-4.1-5.1-6.9-6.8
			c-2.9-1.8-6.1-3-9.5-3.6c-3.6-0.7-7.3-1.1-10.9-1.1c-3.7,0-7.4,0.3-11,1c-3.4,0.6-6.7,1.8-9.7,3.5c-2.8,1.6-5.2,4-6.9,6.8
			c-1.9,3.4-2.8,7.2-2.6,11c-0.1,2.7,0.6,5.4,1.9,7.7c1.3,2.1,3,3.9,5,5.2c2.2,1.4,4.5,2.6,7,3.4c2.6,0.9,5.3,1.6,8.1,2.2
			c5.4,1,10.7,2.5,15.9,4.3c3.8,1.4,5.7,3.6,5.7,6.4c0.1,1.5-0.4,3-1.2,4.2c-0.8,1.1-1.8,2-3,2.7c-1.3,0.7-2.6,1.2-4,1.5
			s-2.8,0.5-4.2,0.5c-1.8,0-3.7-0.2-5.4-0.7c-1.7-0.4-3.2-1.1-4.6-2.1c-1.4-0.9-2.5-2.2-3.3-3.6c-0.9-1.6-1.3-3.5-1.3-5.3h-18.2
			c0,4.1,1.1,8.1,3.2,11.6c1.9,3,4.4,5.6,7.4,7.4c3.2,1.9,6.6,3.3,10.3,4c3.9,0.8,7.8,1.2,11.8,1.2c3.9,0,7.8-0.4,11.6-1.1
			c3.6-0.7,7-2,10.1-4c3-1.9,5.4-4.4,7.2-7.4c1.9-3.5,2.9-7.5,2.8-11.5C614.8,122.6,614.1,119.8,612.8,117.3L612.8,117.3z
			 M650.6,51.9l-36.2,95.9h21.2l7.5-21.3H679l7.2,21.3h21.9l-35.8-95.9H650.6z M648.6,110.7l12.5-35.2h0.3l12.1,35.2H648.6z
			 M774,87.7c-2.6-3.4-6-6.2-9.8-8.2c-4.4-2.2-9.2-3.2-14.1-3.1c-4.1,0-8.1,0.8-11.8,2.6c-3.7,1.8-6.8,4.7-8.9,8.2h-0.3v-8.9H711
			V172h19.1v-32.9h0.3c2.2,3.3,5.3,6,8.9,7.7c3.7,1.8,7.8,2.7,11.9,2.6c4.6,0.1,9.2-0.9,13.3-3c3.7-1.9,7-4.6,9.5-7.9
			c2.6-3.4,4.5-7.3,5.7-11.4c1.3-4.4,1.9-8.9,1.9-13.4c0-4.8-0.6-9.5-1.9-14.2C778.6,95.3,776.7,91.3,774,87.7z M761.8,121.4
			c-0.5,2.5-1.4,4.9-2.8,7c-4.7,7.2-14.3,9.2-21.4,4.5c-1.8-1.2-3.3-2.7-4.5-4.5c-1.4-2.1-2.3-4.5-2.8-7c-0.6-2.7-0.9-5.4-0.9-8.2
			c0-2.8,0.3-5.6,0.8-8.3c0.5-2.5,1.4-4.9,2.8-7.1c1.3-2,3-3.8,5.1-5c2.4-1.4,5.1-2.1,7.8-2c2.7-0.1,5.4,0.6,7.7,2
			c2.1,1.3,3.9,3,5.2,5.1c1.4,2.2,2.4,4.6,2.9,7.2c0.6,2.7,0.9,5.4,0.9,8.2C762.6,116,762.3,118.7,761.8,121.4L761.8,121.4z
			 M855.7,99.6c-1.1-4.3-3.1-8.3-5.7-11.9c-2.6-3.4-6-6.2-9.8-8.2c-4.4-2.2-9.2-3.2-14.1-3.1c-4.1-0.1-8.1,0.8-11.9,2.6
			c-3.7,1.8-6.8,4.7-8.9,8.2H805v-8.9h-18V172h19.1v-32.9h0.3c2.2,3.3,5.3,6,8.9,7.7c3.7,1.8,7.8,2.7,11.9,2.6
			c4.6,0.1,9.2-0.9,13.4-3c3.7-1.9,7-4.6,9.5-7.9c2.6-3.4,4.5-7.3,5.7-11.4c1.3-4.4,1.9-8.9,1.9-13.4
			C857.6,108.9,857,104.2,855.7,99.6L855.7,99.6z M837.7,121.4c-0.5,2.5-1.4,4.9-2.8,7c-4.7,6.6-13.6,8.7-20.7,4.9
			c-2.1-1.2-3.9-2.9-5.2-4.9c-1.4-2.1-2.3-4.5-2.8-7c-0.6-2.7-0.9-5.4-0.9-8.2c0-2.8,0.3-5.6,0.8-8.3c0.5-2.5,1.4-4.9,2.8-7.1
			c1.3-2,3-3.8,5.1-5c2.4-1.4,5.1-2.1,7.8-2c2.7-0.1,5.4,0.6,7.7,2c2.1,1.3,3.9,3,5.2,5.1c1.4,2.2,2.4,4.6,2.9,7.2
			c0.6,2.7,0.9,5.4,0.9,8.2C838.6,116,838.3,118.7,837.7,121.4z"/>
	</g>
</g>
</svg>
