<svg xmlns="http://www.w3.org/2000/svg" width="23" height="23.111" viewBox="0 0 23 23.111"><path d="M19.9,3.359A11.455,11.455,0,0,0,1.875,17.176L.25,23.111l6.071-1.593a11.44,11.44,0,0,0,5.473,1.394h0A11.457,11.457,0,0,0,19.9,3.359ZM11.8,20.978h0a9.507,9.507,0,0,1-4.845-1.327L6.6,19.445,3,20.39l.962-3.512-.226-.36A9.518,9.518,0,1,1,11.8,20.978Zm5.221-7.129c-.286-.143-1.693-.835-1.955-.931s-.453-.143-.644.143-.739.931-.906,1.122-.334.215-.62.072a7.816,7.816,0,0,1-2.3-1.42A8.631,8.631,0,0,1,9,10.853c-.167-.287,0-.427.126-.584a8.094,8.094,0,0,0,.715-.979.526.526,0,0,0-.024-.5c-.071-.143-.644-1.552-.882-2.125-.232-.558-.468-.482-.644-.491s-.358-.01-.548-.01a1.051,1.051,0,0,0-.763.358,3.209,3.209,0,0,0-1,2.387,5.566,5.566,0,0,0,1.168,2.96,12.755,12.755,0,0,0,4.888,4.321,16.379,16.379,0,0,0,1.631.6,3.923,3.923,0,0,0,1.8.113A2.948,2.948,0,0,0,17.4,15.544a2.391,2.391,0,0,0,.167-1.361c-.071-.119-.262-.191-.548-.334Zm0,0" transform="translate(-0.25)" fill="#fff" fill-rule="evenodd" opacity="0.75"/></svg>