<svg xmlns="http://www.w3.org/2000/svg" width="21.424" height="15" viewBox="0 0 21.424 15"><path d="M20.983-3.735a2.684,2.684,0,0,0-1.888-1.888c-1.676-.459-8.382-.459-8.382-.459s-6.706,0-8.382.441A2.738,2.738,0,0,0,.442-3.735,28.281,28.281,0,0,0,0,1.418,28.177,28.177,0,0,0,.442,6.571,2.684,2.684,0,0,0,2.33,8.459c1.694.459,8.382.459,8.382.459s6.706,0,8.382-.441a2.684,2.684,0,0,0,1.888-1.888,28.29,28.29,0,0,0,.441-5.153,26.846,26.846,0,0,0-.441-5.171ZM8.577,4.63V-1.794l5.576,3.212Zm0,0" transform="translate(-0.001 6.082)" fill="#fff"/></svg>