<svg xmlns="http://www.w3.org/2000/svg" viewBox="0 0 32 32"><defs><style>.cls-1{fill:#444;}.cls-2{fill:#e7e6e3;}</style></defs><title>Asset 4</title><g id="Layer_2" data-name="Layer 2"><g id="Layer_1-2" data-name="Layer 1"><circle class="cls-1" cx="16" cy="16" r="16"/><path class="cls-2" d="M26.27,10.85A2.69,2.69,0,0,0,24.38,9C22.71,8.5,16,8.5,16,8.5s-6.71,0-8.38.44a2.74,2.74,0,0,0-1.89,1.91A28.65,28.65,0,0,0,5.29,16a27.77,27.77,0,0,0,.44,5.15A2.69,2.69,0,0,0,7.62,23c1.69.46,8.38.46,8.38.46s6.71,0,8.38-.44a2.69,2.69,0,0,0,1.89-1.89A28.65,28.65,0,0,0,26.71,16a27.08,27.08,0,0,0-.44-5.17Z"/><polygon class="cls-1" points="13.87 19.21 13.87 12.79 19.44 16 13.87 19.21"/></g></g></svg>